<svg aria-hidden="true" style="position: absolute; width: 0; height: 0; overflow: hidden;" version="1.1" xmlns="http://www.w3.org/2000/svg" xmlns:xlink="http://www.w3.org/1999/xlink">
<defs>
<symbol id="icon-left-btn" viewBox="0 0 32 32">
<path d="M21.414 28.728c0.375-0.375 0.585-0.884 0.585-1.414s-0.211-1.039-0.585-1.414l-9.9-9.9 9.9-9.9c0.364-0.377 0.566-0.882 0.561-1.407s-0.215-1.026-0.586-1.397-0.872-0.581-1.397-0.586c-0.524-0.005-1.030 0.197-1.407 0.561l-11.314 11.314c-0.375 0.375-0.586 0.884-0.586 1.414s0.211 1.039 0.586 1.414l11.314 11.314c0.375 0.375 0.884 0.586 1.414 0.586s1.039-0.211 1.414-0.586z"></path>
</symbol>
<symbol id="icon-right-btn" viewBox="0 0 32 32">
<path d="M10.586 3.272c-0.375 0.375-0.585 0.884-0.585 1.414s0.211 1.039 0.585 1.414l9.9 9.9-9.9 9.9c-0.364 0.377-0.566 0.882-0.561 1.407s0.215 1.026 0.586 1.397c0.371 0.371 0.872 0.581 1.397 0.586s1.030-0.197 1.407-0.561l11.314-11.314c0.375-0.375 0.586-0.884 0.586-1.414s-0.211-1.039-0.586-1.414l-11.314-11.314c-0.375-0.375-0.884-0.586-1.414-0.586s-1.039 0.211-1.414 0.586z"></path>
</symbol>
<symbol id="icon-youtube" viewBox="0 0 32 32">
<path d="M16 5.333c1.14 0 2.309 0.029 3.443 0.077l1.339 0.064 1.281 0.076 1.2 0.081 1.096 0.085c1.19 0.091 2.309 0.598 3.161 1.433s1.382 1.944 1.497 3.131l0.053 0.567 0.1 1.213c0.093 1.257 0.163 2.628 0.163 3.939s-0.069 2.681-0.163 3.939l-0.1 1.213-0.053 0.567c-0.115 1.188-0.645 2.297-1.498 3.132s-1.972 1.342-3.162 1.432l-1.093 0.084-1.2 0.083-1.283 0.076-1.339 0.064c-1.147 0.050-2.295 0.075-3.443 0.077-1.148-0.002-2.296-0.028-3.443-0.077l-1.339-0.064-1.281-0.076-1.2-0.083-1.096-0.084c-1.19-0.091-2.309-0.598-3.161-1.433s-1.382-1.944-1.497-3.131l-0.053-0.567-0.1-1.213c-0.102-1.311-0.156-2.624-0.163-3.939 0-1.311 0.069-2.681 0.163-3.939l0.1-1.213 0.053-0.567c0.115-1.187 0.645-2.296 1.497-3.131s1.971-1.342 3.16-1.433l1.095-0.085 1.2-0.081 1.283-0.076 1.339-0.064c1.147-0.050 2.296-0.075 3.444-0.077zM13.333 12.767v6.467c0 0.616 0.667 1 1.2 0.693l5.6-3.233c0.122-0.070 0.223-0.171 0.293-0.293s0.107-0.26 0.107-0.4c0-0.141-0.037-0.279-0.107-0.4s-0.172-0.223-0.293-0.293l-5.6-3.232c-0.122-0.070-0.26-0.107-0.4-0.107s-0.278 0.037-0.4 0.107c-0.122 0.070-0.223 0.171-0.293 0.293s-0.107 0.26-0.107 0.4v-0.001z"></path>
</symbol>
<symbol id="icon-instagram" viewBox="0 0 32 32">
<path d="M10.4 2.667h11.2c4.267 0 7.733 3.467 7.733 7.733v11.2c0 2.051-0.815 4.018-2.265 5.468s-3.417 2.265-5.468 2.265h-11.2c-4.267 0-7.733-3.467-7.733-7.733v-11.2c0-2.051 0.815-4.018 2.265-5.468s3.417-2.265 5.468-2.265zM10.133 5.333c-1.273 0-2.494 0.506-3.394 1.406s-1.406 2.121-1.406 3.394v11.733c0 2.653 2.147 4.8 4.8 4.8h11.733c1.273 0 2.494-0.506 3.394-1.406s1.406-2.121 1.406-3.394v-11.733c0-2.653-2.147-4.8-4.8-4.8h-11.733zM23 7.333c0.442 0 0.866 0.176 1.179 0.488s0.488 0.736 0.488 1.178c0 0.442-0.176 0.866-0.488 1.178s-0.737 0.488-1.179 0.488c-0.442 0-0.866-0.176-1.179-0.488s-0.488-0.736-0.488-1.178c0-0.442 0.176-0.866 0.488-1.178s0.737-0.488 1.179-0.488zM16 9.333c1.768 0 3.464 0.702 4.714 1.953s1.953 2.946 1.953 4.714-0.702 3.464-1.953 4.714c-1.25 1.25-2.946 1.953-4.714 1.953s-3.464-0.702-4.714-1.953c-1.25-1.25-1.953-2.946-1.953-4.714s0.702-3.464 1.953-4.714c1.25-1.25 2.946-1.953 4.714-1.953zM16 12c-1.061 0-2.078 0.421-2.828 1.172s-1.172 1.768-1.172 2.828c0 1.061 0.421 2.078 1.172 2.828s1.768 1.172 2.828 1.172c1.061 0 2.078-0.421 2.828-1.172s1.172-1.768 1.172-2.828c0-1.061-0.421-2.078-1.172-2.828s-1.768-1.172-2.828-1.172z"></path>
</symbol>
<symbol id="icon-facebook" viewBox="0 0 32 32">
<path d="M18.667 18h3.333l1.333-5.333h-4.667v-2.667c0-1.373 0-2.667 2.667-2.667h2v-4.48c-0.435-0.057-2.076-0.187-3.809-0.187-3.62 0-6.191 2.209-6.191 6.267v3.733h-4v5.333h4v11.333h5.333v-11.333z"></path>
</symbol>
<symbol id="icon-twitter" viewBox="0 0 32 32">
<path d="M13.984 19.535l6.349 8.465h9.333l-10.477-13.971 8.717-10.029h-3.533l-6.823 7.848-5.884-7.848h-9.333l10.013 13.353-9.253 10.647h3.533l7.357-8.465zM21.667 25.333l-14-18.667h2.667l14 18.667h-2.667z"></path>
</symbol>
</defs>
</svg>
