<svg aria-hidden="true" style="position: absolute; width: 0; height: 0; overflow: hidden;" version="1.1" xmlns="http://www.w3.org/2000/svg" xmlns:xlink="http://www.w3.org/1999/xlink">
<defs>
<symbol id="icon-location" viewBox="0 0 32 32">
<path d="M25.602 3.964c-2.556-2.556-5.955-3.964-9.57-3.964s-7.014 1.408-9.57 3.964c-2.556 2.556-3.964 5.955-3.964 9.57 0 7.313 6.915 13.396 10.63 16.664 0.516 0.454 0.962 0.846 1.317 1.178 0.445 0.416 1.016 0.624 1.587 0.624s1.142-0.208 1.587-0.624c0.355-0.332 0.801-0.724 1.317-1.178 3.715-3.268 10.63-9.351 10.63-16.664-0-3.615-1.408-7.014-3.964-9.57zM17.698 28.791c-0.528 0.464-0.983 0.865-1.359 1.216-0.173 0.161-0.443 0.161-0.615 0-0.376-0.351-0.831-0.752-1.359-1.216-3.492-3.072-9.993-8.791-9.993-15.256 0-6.429 5.231-11.66 11.66-11.66s11.66 5.231 11.66 11.66c0 6.466-6.501 12.184-9.993 15.256z"></path>
<path d="M16.031 7.059c-3.289 0-5.964 2.676-5.964 5.964s2.676 5.964 5.964 5.964c3.289 0 5.964-2.676 5.964-5.964s-2.676-5.964-5.964-5.964zM16.031 17.113c-2.255 0-4.090-1.835-4.090-4.090s1.835-4.090 4.090-4.090c2.255 0 4.090 1.835 4.090 4.090s-1.835 4.090-4.090 4.090z"></path>
</symbol>
<symbol id="icon-telephone" viewBox="0 0 32 32">
<path d="M6.548 21.254c3.154 3.77 6.95 6.738 11.283 8.838 1.65 0.782 3.856 1.709 6.314 1.868 0.152 0.007 0.298 0.013 0.451 0.013 1.65 0 2.975-0.57 4.055-1.742 0.007-0.007 0.020-0.020 0.026-0.033 0.384-0.464 0.822-0.881 1.279-1.325 0.311-0.298 0.629-0.61 0.934-0.928 1.411-1.471 1.411-3.339-0.013-4.764l-3.982-3.982c-0.676-0.702-1.484-1.073-2.332-1.073s-1.663 0.371-2.359 1.067l-2.372 2.372c-0.219-0.126-0.444-0.238-0.656-0.345-0.265-0.133-0.51-0.258-0.729-0.398-2.16-1.371-4.121-3.16-5.996-5.459-0.947-1.199-1.583-2.206-2.027-3.233 0.623-0.563 1.206-1.153 1.769-1.729 0.199-0.205 0.404-0.411 0.61-0.616 0.716-0.716 1.1-1.544 1.1-2.385s-0.378-1.67-1.1-2.385l-1.974-1.974c-0.232-0.232-0.451-0.457-0.676-0.689-0.437-0.451-0.894-0.914-1.345-1.332-0.682-0.669-1.484-1.020-2.332-1.020-0.841 0-1.65 0.351-2.359 1.027l-2.478 2.478c-0.901 0.901-1.411 1.994-1.517 3.26-0.126 1.583 0.166 3.266 0.921 5.3 1.159 3.147 2.909 6.069 5.506 9.189zM1.738 6.904c0.079-0.881 0.417-1.617 1.053-2.253l2.465-2.465c0.384-0.371 0.808-0.563 1.219-0.563 0.404 0 0.815 0.192 1.193 0.576 0.444 0.411 0.861 0.841 1.312 1.299 0.225 0.232 0.457 0.464 0.689 0.702l1.974 1.974c0.411 0.411 0.623 0.828 0.623 1.239s-0.212 0.828-0.623 1.239c-0.205 0.205-0.411 0.417-0.616 0.623-0.616 0.623-1.193 1.212-1.829 1.776-0.013 0.013-0.020 0.020-0.033 0.033-0.55 0.55-0.464 1.073-0.331 1.471 0.007 0.020 0.013 0.033 0.020 0.053 0.51 1.226 1.219 2.392 2.325 3.783 1.988 2.451 4.081 4.353 6.387 5.817 0.285 0.186 0.59 0.331 0.875 0.477 0.265 0.133 0.51 0.258 0.729 0.398 0.026 0.013 0.046 0.026 0.073 0.040 0.219 0.113 0.431 0.166 0.643 0.166 0.53 0 0.875-0.338 0.987-0.451l2.478-2.478c0.384-0.384 0.802-0.59 1.212-0.59 0.504 0 0.914 0.311 1.173 0.59l3.995 3.988c0.795 0.795 0.788 1.656-0.020 2.498-0.278 0.298-0.57 0.583-0.881 0.881-0.464 0.451-0.947 0.914-1.385 1.438-0.762 0.822-1.67 1.206-2.842 1.206-0.113 0-0.232-0.007-0.345-0.013-2.173-0.139-4.194-0.987-5.711-1.709-4.121-1.994-7.738-4.823-10.74-8.414-2.471-2.975-4.134-5.744-5.234-8.712-0.682-1.822-0.941-3.286-0.835-4.618z"></path>
</symbol>
<symbol id="icon-left-btn" viewBox="0 0 32 32">
<path d="M21.414 28.728c0.375-0.375 0.585-0.884 0.585-1.414s-0.211-1.039-0.585-1.414l-9.9-9.9 9.9-9.9c0.364-0.377 0.566-0.882 0.561-1.407s-0.215-1.026-0.586-1.397-0.872-0.581-1.397-0.586c-0.524-0.005-1.030 0.197-1.407 0.561l-11.314 11.314c-0.375 0.375-0.586 0.884-0.586 1.414s0.211 1.039 0.586 1.414l11.314 11.314c0.375 0.375 0.884 0.586 1.414 0.586s1.039-0.211 1.414-0.586z"></path>
</symbol>
<symbol id="icon-right-btn" viewBox="0 0 32 32">
<path d="M10.586 3.272c-0.375 0.375-0.585 0.884-0.585 1.414s0.211 1.039 0.585 1.414l9.9 9.9-9.9 9.9c-0.364 0.377-0.566 0.882-0.561 1.407s0.215 1.026 0.586 1.397c0.371 0.371 0.872 0.581 1.397 0.586s1.030-0.197 1.407-0.561l11.314-11.314c0.375-0.375 0.586-0.884 0.586-1.414s-0.211-1.039-0.586-1.414l-11.314-11.314c-0.375-0.375-0.884-0.586-1.414-0.586s-1.039 0.211-1.414 0.586z"></path>
</symbol>
<symbol id="icon-youtube" viewBox="0 0 32 32">
<path d="M16 5.333c1.14 0 2.309 0.029 3.443 0.077l1.339 0.064 1.281 0.076 1.2 0.081 1.096 0.085c1.19 0.091 2.309 0.598 3.161 1.433s1.382 1.944 1.497 3.131l0.053 0.567 0.1 1.213c0.093 1.257 0.163 2.628 0.163 3.939s-0.069 2.681-0.163 3.939l-0.1 1.213-0.053 0.567c-0.115 1.188-0.645 2.297-1.498 3.132s-1.972 1.342-3.162 1.432l-1.093 0.084-1.2 0.083-1.283 0.076-1.339 0.064c-1.147 0.050-2.295 0.075-3.443 0.077-1.148-0.002-2.296-0.028-3.443-0.077l-1.339-0.064-1.281-0.076-1.2-0.083-1.096-0.084c-1.19-0.091-2.309-0.598-3.161-1.433s-1.382-1.944-1.497-3.131l-0.053-0.567-0.1-1.213c-0.102-1.311-0.156-2.624-0.163-3.939 0-1.311 0.069-2.681 0.163-3.939l0.1-1.213 0.053-0.567c0.115-1.187 0.645-2.296 1.497-3.131s1.971-1.342 3.16-1.433l1.095-0.085 1.2-0.081 1.283-0.076 1.339-0.064c1.147-0.050 2.296-0.075 3.444-0.077zM13.333 12.767v6.467c0 0.616 0.667 1 1.2 0.693l5.6-3.233c0.122-0.070 0.223-0.171 0.293-0.293s0.107-0.26 0.107-0.4c0-0.141-0.037-0.279-0.107-0.4s-0.172-0.223-0.293-0.293l-5.6-3.232c-0.122-0.070-0.26-0.107-0.4-0.107s-0.278 0.037-0.4 0.107c-0.122 0.070-0.223 0.171-0.293 0.293s-0.107 0.26-0.107 0.4v-0.001z"></path>
</symbol>
<symbol id="icon-instagram" viewBox="0 0 32 32">
<path d="M10.4 2.667h11.2c4.267 0 7.733 3.467 7.733 7.733v11.2c0 2.051-0.815 4.018-2.265 5.468s-3.417 2.265-5.468 2.265h-11.2c-4.267 0-7.733-3.467-7.733-7.733v-11.2c0-2.051 0.815-4.018 2.265-5.468s3.417-2.265 5.468-2.265zM10.133 5.333c-1.273 0-2.494 0.506-3.394 1.406s-1.406 2.121-1.406 3.394v11.733c0 2.653 2.147 4.8 4.8 4.8h11.733c1.273 0 2.494-0.506 3.394-1.406s1.406-2.121 1.406-3.394v-11.733c0-2.653-2.147-4.8-4.8-4.8h-11.733zM23 7.333c0.442 0 0.866 0.176 1.179 0.488s0.488 0.736 0.488 1.178c0 0.442-0.176 0.866-0.488 1.178s-0.737 0.488-1.179 0.488c-0.442 0-0.866-0.176-1.179-0.488s-0.488-0.736-0.488-1.178c0-0.442 0.176-0.866 0.488-1.178s0.737-0.488 1.179-0.488zM16 9.333c1.768 0 3.464 0.702 4.714 1.953s1.953 2.946 1.953 4.714-0.702 3.464-1.953 4.714c-1.25 1.25-2.946 1.953-4.714 1.953s-3.464-0.702-4.714-1.953c-1.25-1.25-1.953-2.946-1.953-4.714s0.702-3.464 1.953-4.714c1.25-1.25 2.946-1.953 4.714-1.953zM16 12c-1.061 0-2.078 0.421-2.828 1.172s-1.172 1.768-1.172 2.828c0 1.061 0.421 2.078 1.172 2.828s1.768 1.172 2.828 1.172c1.061 0 2.078-0.421 2.828-1.172s1.172-1.768 1.172-2.828c0-1.061-0.421-2.078-1.172-2.828s-1.768-1.172-2.828-1.172z"></path>
</symbol>
<symbol id="icon-facebook" viewBox="0 0 32 32">
<path d="M18.667 18h3.333l1.333-5.333h-4.667v-2.667c0-1.373 0-2.667 2.667-2.667h2v-4.48c-0.435-0.057-2.076-0.187-3.809-0.187-3.62 0-6.191 2.209-6.191 6.267v3.733h-4v5.333h4v11.333h5.333v-11.333z"></path>
</symbol>
<symbol id="icon-twitter" viewBox="0 0 32 32">
<path d="M13.984 19.535l6.349 8.465h9.333l-10.477-13.971 8.717-10.029h-3.533l-6.823 7.848-5.884-7.848h-9.333l10.013 13.353-9.253 10.647h3.533l7.357-8.465zM21.667 25.333l-14-18.667h2.667l14 18.667h-2.667z"></path>
</symbol>
<symbol id="icon-calendar" viewBox="0 0 32 32">
<path d="M2,27a3,3,0,0,0,3,3H27a3,3,0,0,0,3-3V13H2ZM22.5,15h2a1,1,0,0,1,0,2h-2a1,1,0,0,1,0-2Zm0,4h2a1,1,0,0,1,0,2h-2a1,1,0,0,1,0-2Zm0,4h2a1,1,0,0,1,0,2h-2a1,1,0,0,1,0-2Zm-5-8h2a1,1,0,0,1,0,2h-2a1,1,0,0,1,0-2Zm0,4h2a1,1,0,0,1,0,2h-2a1,1,0,0,1,0-2Zm0,4h2a1,1,0,0,1,0,2h-2a1,1,0,0,1,0-2Zm-5-8h2a1,1,0,0,1,0,2h-2a1,1,0,0,1,0-2Zm0,4h2a1,1,0,0,1,0,2h-2a1,1,0,0,1,0-2Zm0,4h2a1,1,0,0,1,0,2h-2a1,1,0,0,1,0-2Zm-5-8h2a1,1,0,0,1,0,2h-2a1,1,0,0,1,0-2Zm0,4h2a1,1,0,0,1,0,2h-2a1,1,0,0,1,0-2Zm0,4h2a1,1,0,0,1,0,2h-2a1,1,0,0,1,0-2ZM30,9v2H2V9A3,3,0,0,1,5,6H7V3A1,1,0,0,1,9,3V6H23V3a1,1,0,0,1,2,0V6h2A3,3,0,0,1,30,9Z"></path>
</symbol>
<symbol id="icon-headphones" viewBox="0 0 100 100">
<path d="M62.117,61.697v24.389c0,3.501,2.07,6.58,5.218,8.41V53.283C64.188,55.11,62.117,58.196,62.117,61.697z"></path>
<path d="M33.778,53.274v41.229c3.165-1.822,5.243-4.91,5.243-8.417V61.688  C39.021,58.187,36.943,55.099,33.778,53.274z"></path>
<path d="M50.694,3.397C23.595,3.4,1.632,22.182,1.626,45.36v0.371l5.298,34.014c0.446,2.872,3.318,4.957,6.611,4.957  c0.293,0,0.59-0.014,0.889-0.05c0.296-0.034,0.581-0.088,0.858-0.152v1.586c0,5.605,5.313,10.151,11.869,10.151  c1.567,0,3.052-0.278,4.421-0.749v-43.2c-1.369-0.474-2.854-0.746-4.421-0.746c-4.438,0-8.306,2.086-10.341,5.178L14.983,45  c0.116-8.312,4.075-15.77,10.457-21.242c6.483-5.532,15.371-8.938,25.254-8.942c9.889,0.004,18.773,3.41,25.256,8.942  c6.378,5.472,10.344,12.929,10.461,21.239l-1.882,12.046c-1.974-3.267-5.948-5.502-10.547-5.502c-1.569,0-3.063,0.272-4.436,0.749  v43.194c1.372,0.474,2.866,0.752,4.436,0.752c6.556,0,11.869-4.546,11.869-10.151v-1.761c0.36,0.096,0.731,0.175,1.115,0.217  c3.65,0.418,7.012-1.778,7.504-4.902l5.297-33.909V45.36C99.762,22.182,77.795,3.4,50.694,3.397z"></path>
</symbol>
<symbol id="icon-play" viewBox="0 0 26 32">
<path d="M0 3.012c0-0.331 0.079-0.655 0.228-0.945 0.491-0.939 1.6-1.278 2.481-0.755l21.952 12.988c0.299 0.177 0.544 0.439 0.708 0.757 0.491 0.939 0.171 2.123-0.708 2.643l-21.952 12.988c-0.267 0.161-0.573 0.246-0.885 0.245-1.007 0-1.824-0.87-1.824-1.943v-25.978z"></path>
</symbol>
<symbol id="icon-scroll-top" viewBox="0 0 32 32">
<path d="M16 0c-8.837 0-16 7.163-16 16s7.163 16 16 16 16-7.163 16-16c0-8.837-7.163-16-16-16zM23.402 18.21c-0.737 0.701-1.903 0.672-2.603-0.064l-2.957-3.108v7.362c0 1.018-0.824 1.842-1.842 1.842s-1.841-0.824-1.841-1.842v-7.362l-2.957 3.108c-0.7 0.736-1.867 0.766-2.603 0.064-0.737-0.701-0.767-1.866-0.065-2.603l7.253-7.625c0.055-0.058 0.132-0.091 0.212-0.091s0.157 0.033 0.212 0.091l7.254 7.625c0.702 0.737 0.673 1.902-0.065 2.603z"></path>
</symbol>
<symbol id="icon-heart" viewBox="0 0 34 32">
<path fill="#fe226a" style="fill: var(--color1, #fe226a)" d="M17.231 31.705l-2.412-2.412c-8.96-7.926-14.818-13.268-14.818-19.815 0-5.342 4.135-9.477 9.477-9.477 2.929 0 5.858 1.378 7.754 3.618 1.895-2.24 4.825-3.618 7.754-3.618 5.342 0 9.477 4.135 9.477 9.477 0 6.548-5.858 11.889-14.818 19.815l-2.412 2.412z"></path>
</symbol>
<symbol id="icon-linkedin" viewBox="0 0 32 32">
<path d="M23.071 3h-14.141c-1.573 0-3.081 0.625-4.193 1.737s-1.737 2.62-1.737 4.193v14.141c0 1.573 0.625 3.081 1.737 4.193s2.62 1.737 4.193 1.737h14.141c1.573 0 3.081-0.625 4.193-1.737s1.737-2.62 1.737-4.193v-14.141c0-1.573-0.625-3.081-1.737-4.193s-2.62-1.737-4.193-1.737zM11.791 23.989c0.004 0.073-0.007 0.145-0.031 0.214s-0.063 0.131-0.114 0.183c-0.050 0.053-0.11 0.095-0.177 0.124s-0.139 0.044-0.211 0.043h-2.373c-0.143-0.003-0.279-0.063-0.379-0.166s-0.155-0.24-0.154-0.384v-9.871c-0.002-0.071 0.010-0.142 0.036-0.209s0.065-0.127 0.115-0.178c0.050-0.051 0.109-0.092 0.175-0.119s0.136-0.042 0.208-0.042h2.373c0.071 0 0.142 0.014 0.208 0.042s0.125 0.068 0.175 0.119c0.050 0.051 0.089 0.112 0.115 0.178s0.038 0.137 0.036 0.209v9.856zM10.027 11.509c-0.257-0.002-0.511-0.054-0.748-0.155s-0.451-0.246-0.632-0.429c-0.18-0.183-0.323-0.4-0.419-0.638s-0.145-0.493-0.143-0.75c0.002-0.257 0.054-0.511 0.155-0.748s0.246-0.451 0.429-0.632c0.183-0.18 0.4-0.323 0.638-0.419s0.493-0.145 0.75-0.143c0.51 0.017 0.993 0.232 1.347 0.6s0.549 0.86 0.546 1.37c-0.004 0.51-0.207 0.999-0.566 1.361s-0.845 0.571-1.356 0.58zM24.449 23.973c-0.001 0.135-0.053 0.264-0.148 0.36s-0.222 0.153-0.357 0.157h-2.505c-0.135-0.004-0.263-0.061-0.357-0.157s-0.147-0.226-0.147-0.361v-4.565c0-0.681 0.208-2.964-1.808-2.964-1.572 0-1.883 1.6-1.943 2.312v5.321c0 0.135-0.052 0.265-0.147 0.362s-0.222 0.154-0.357 0.158h-2.431c-0.138-0-0.27-0.055-0.367-0.153s-0.152-0.23-0.152-0.367v-9.991c0.004-0.135 0.061-0.263 0.158-0.357s0.227-0.147 0.362-0.147h2.429c0.135 0 0.265 0.053 0.362 0.147s0.154 0.222 0.158 0.357v0.86c0.355-0.519 0.845-0.932 1.416-1.193s1.204-0.361 1.829-0.29c4.047 0 4.032 3.78 4.032 5.929l-0.029 4.581z"></path>
</symbol>
<symbol id="icon-github" viewBox="0 0 32 32">
<path d="M27.84 4.132c-0.978-0.978-2.154-1.466-3.529-1.465h-16.649c-1.376 0-2.552 0.488-3.529 1.465s-1.466 2.154-1.465 3.529v16.649c0 1.376 0.488 2.552 1.465 3.529s2.154 1.466 3.529 1.465h3.885c0.253 0 0.444-0.009 0.572-0.027 0.149-0.029 0.284-0.109 0.381-0.225 0.127-0.133 0.191-0.327 0.191-0.58l-0.009-1.18c-0.005-0.752-0.008-1.348-0.008-1.787l-0.4 0.069c-0.253 0.046-0.574 0.067-0.961 0.061-0.404-0.008-0.807-0.048-1.205-0.121-0.424-0.077-0.823-0.255-1.163-0.52-0.357-0.27-0.623-0.642-0.763-1.067l-0.173-0.4c-0.147-0.315-0.33-0.612-0.547-0.884-0.249-0.324-0.5-0.543-0.755-0.659l-0.12-0.087c-0.083-0.060-0.159-0.13-0.227-0.208-0.064-0.072-0.117-0.154-0.156-0.243-0.035-0.082-0.006-0.148 0.087-0.2 0.092-0.053 0.26-0.080 0.504-0.079l0.347 0.053c0.231 0.045 0.517 0.184 0.857 0.415 0.344 0.235 0.631 0.543 0.841 0.903 0.267 0.473 0.588 0.834 0.963 1.084 0.376 0.249 0.755 0.373 1.136 0.373s0.711-0.029 0.989-0.087c0.27-0.056 0.531-0.143 0.78-0.261 0.104-0.774 0.387-1.37 0.849-1.787-0.6-0.059-1.194-0.163-1.777-0.312-0.57-0.156-1.117-0.383-1.631-0.676-0.537-0.292-1.011-0.687-1.396-1.163-0.37-0.462-0.673-1.069-0.911-1.82s-0.355-1.62-0.355-2.603c0-1.398 0.456-2.589 1.369-3.573-0.427-1.052-0.386-2.23 0.121-3.536 0.336-0.105 0.833-0.027 1.492 0.233s1.141 0.483 1.448 0.667c0.307 0.187 0.552 0.343 0.737 0.469 1.084-0.302 2.204-0.454 3.329-0.451 1.145 0 2.255 0.15 3.331 0.451l0.659-0.416c0.507-0.304 1.041-0.56 1.596-0.763 0.612-0.231 1.081-0.295 1.405-0.191 0.52 1.307 0.566 2.486 0.137 3.537 0.914 0.982 1.371 2.173 1.371 3.573 0 0.983-0.119 1.853-0.356 2.609-0.236 0.757-0.543 1.364-0.919 1.821-0.393 0.468-0.869 0.859-1.404 1.153-0.56 0.312-1.104 0.537-1.631 0.676-0.584 0.149-1.178 0.254-1.777 0.313 0.6 0.52 0.9 1.34 0.901 2.461v4.147c0 0.195 0.029 0.354 0.087 0.476 0.027 0.058 0.065 0.111 0.113 0.154s0.104 0.077 0.164 0.098c0.127 0.046 0.24 0.075 0.339 0.085 0.099 0.012 0.24 0.018 0.424 0.017h3.885c1.376 0 2.552-0.488 3.529-1.465s1.465-2.153 1.465-3.529v-16.648c0-1.376-0.488-2.552-1.465-3.529z"></path>
</symbol>
<symbol id="icon-cross-closed" viewBox="0 0 32 32">
<path d="M5.021 1.123l10.98 10.98 10.923-10.923c0.241-0.257 0.532-0.462 0.855-0.604s0.67-0.217 1.023-0.221c0.754 0 1.478 0.3 2.011 0.833s0.833 1.257 0.833 2.011c0.007 0.349-0.058 0.695-0.19 1.018s-0.329 0.615-0.578 0.859l-11.065 10.923 11.065 11.065c0.469 0.459 0.744 1.080 0.768 1.735 0 0.754-0.3 1.478-0.833 2.011s-1.257 0.833-2.011 0.833c-0.363 0.015-0.724-0.045-1.062-0.178s-0.645-0.333-0.901-0.59l-10.837-10.98-10.951 10.951c-0.24 0.248-0.527 0.447-0.845 0.583s-0.659 0.209-1.004 0.213c-0.754 0-1.478-0.3-2.011-0.833s-0.833-1.257-0.833-2.011c-0.007-0.349 0.058-0.695 0.19-1.018s0.329-0.615 0.578-0.859l11.065-10.923-11.065-11.065c-0.469-0.459-0.744-1.080-0.768-1.735 0-0.754 0.3-1.478 0.833-2.011s1.257-0.833 2.011-0.833c0.683 0.009 1.337 0.284 1.82 0.768z"></path>
</symbol>
</defs>
</svg>
