<svg aria-hidden="true" style="position: absolute; width: 0; height: 0; overflow: hidden;" version="1.1" xmlns="http://www.w3.org/2000/svg" xmlns:xlink="http://www.w3.org/1999/xlink">
<defs>
<symbol id="icon-turntable" viewBox="0 0 32 32">
<path d="M29.333 0h-26.667c-1.472 0.002-2.665 1.195-2.667 2.667v26.667c0.002 1.472 1.195 2.665 2.667 2.667h26.667c1.472-0.002 2.665-1.195 2.667-2.667v-26.667c-0.002-1.472-1.195-2.665-2.667-2.667zM30.933 29.333c0 0.884-0.716 1.6-1.6 1.6h-26.667c-0.884 0-1.6-0.716-1.6-1.6v-26.667c0-0.884 0.716-1.6 1.6-1.6h26.667c0.884 0 1.6 0.716 1.6 1.6v26.667z"></path>
<path d="M12.8 26.667c5.891 0 10.667-4.776 10.667-10.667s-4.776-10.667-10.667-10.667c-5.891 0-10.667 4.776-10.667 10.667 0.007 5.888 4.778 10.66 10.667 10.667zM12.8 6.4c5.302 0 9.6 4.298 9.6 9.6s-4.298 9.6-9.6 9.6c-5.302 0-9.6-4.298-9.6-9.6 0.006-5.299 4.301-9.594 9.6-9.6z"></path>
<path d="M12.8 24.533c4.713 0 8.533-3.82 8.533-8.533s-3.82-8.533-8.533-8.533c-4.713 0-8.533 3.821-8.533 8.533 0.006 4.71 3.823 8.528 8.533 8.533zM12.8 8.533c4.124 0 7.467 3.343 7.467 7.467s-3.343 7.467-7.467 7.467c-4.124 0-7.467-3.343-7.467-7.467 0.004-4.122 3.345-7.462 7.467-7.467z"></path>
<path d="M10.82 11.048c0.274-0.11 0.406-0.42 0.296-0.694s-0.42-0.406-0.694-0.296c-1.859 0.751-3.263 2.325-3.797 4.258-0.077 0.284 0.090 0.577 0.374 0.655s0.577-0.090 0.655-0.374c0.445-1.611 1.615-2.923 3.165-3.548z"></path>
<path d="M12.8 17.6c0.884 0 1.6-0.716 1.6-1.6s-0.716-1.6-1.6-1.6c-0.884 0-1.6 0.716-1.6 1.6s0.716 1.6 1.6 1.6zM12.8 15.467c0.295 0 0.533 0.239 0.533 0.533s-0.239 0.533-0.533 0.533c-0.295 0-0.533-0.239-0.533-0.533s0.239-0.533 0.533-0.533z"></path>
<path d="M22.4 5.333c0.884 0 1.6-0.716 1.6-1.6s-0.716-1.6-1.6-1.6c-0.884 0-1.6 0.716-1.6 1.6s0.716 1.6 1.6 1.6zM22.4 3.2c0.295 0 0.533 0.239 0.533 0.533s-0.239 0.533-0.533 0.533c-0.295 0-0.533-0.239-0.533-0.533s0.239-0.533 0.533-0.533z"></path>
<path d="M26.667 5.333c0.884 0 1.6-0.716 1.6-1.6s-0.716-1.6-1.6-1.6c-0.884 0-1.6 0.716-1.6 1.6s0.716 1.6 1.6 1.6zM26.667 3.2c0.294 0 0.533 0.239 0.533 0.533s-0.239 0.533-0.533 0.533c-0.295 0-0.533-0.239-0.533-0.533s0.239-0.533 0.533-0.533z"></path>
<path d="M29.333 27.733h-20.365c-0.225-0.637-0.826-1.064-1.502-1.067h-2.133c-0.676 0.003-1.277 0.43-1.502 1.067h-1.165c-0.295 0-0.533 0.239-0.533 0.533s0.239 0.533 0.533 0.533h1.165c0.225 0.637 0.826 1.064 1.502 1.067h2.133c0.676-0.003 1.277-0.43 1.502-1.067h20.365c0.295 0 0.533-0.239 0.533-0.533s-0.239-0.533-0.533-0.533zM7.467 28.8h-2.133c-0.295 0-0.533-0.239-0.533-0.533s0.239-0.533 0.533-0.533h2.133c0.295 0 0.533 0.239 0.533 0.533s-0.239 0.533-0.533 0.533z"></path>
<path d="M3.2 3.733c0.295 0 0.533-0.239 0.533-0.533s-0.239-0.533-0.533-0.533c-0.295 0-0.533 0.239-0.533 0.533s0.239 0.533 0.533 0.533z"></path>
<path d="M5.867 3.733c0.295 0 0.533-0.239 0.533-0.533s-0.239-0.533-0.533-0.533c-0.295 0-0.533 0.239-0.533 0.533s0.239 0.533 0.533 0.533z"></path>
<path d="M8.533 3.733c0.295 0 0.533-0.239 0.533-0.533s-0.239-0.533-0.533-0.533c-0.294 0-0.533 0.239-0.533 0.533s0.239 0.533 0.533 0.533z"></path>
<path d="M11.2 3.733c0.295 0 0.533-0.239 0.533-0.533s-0.239-0.533-0.533-0.533c-0.295 0-0.533 0.239-0.533 0.533s0.239 0.533 0.533 0.533z"></path>
<path d="M24.156 25.223c-0.139 0.134-0.194 0.332-0.145 0.519s0.194 0.332 0.381 0.381c0.186 0.049 0.385-0.007 0.519-0.145l2.667-2.667c0.1-0.1 0.156-0.236 0.156-0.377v-8.533c0.884 0 1.6-0.716 1.6-1.6v-4.8c0-0.884-0.716-1.6-1.6-1.6h-1.067c-0.884 0-1.6 0.716-1.6 1.6v4.8c0 0.884 0.716 1.6 1.6 1.6v8.312l-2.51 2.51zM26.133 12.8v-4.8c0-0.295 0.239-0.533 0.533-0.533h1.067c0.295 0 0.533 0.239 0.533 0.533v4.8c0 0.295-0.239 0.533-0.533 0.533h-1.067c-0.295 0-0.533-0.239-0.533-0.533z"></path>
</symbol>
<symbol id="icon-microphone" viewBox="0 0 32 32">
<path d="M22.27 4.647c-0.579-2.707-2.969-4.643-5.737-4.647h-1.067c-2.768 0.004-5.158 1.94-5.737 4.647-5.861 2.834-9.089 9.25-7.872 15.645s6.576 11.177 13.068 11.661h0.012c0.351 0.026 0.705 0.043 1.063 0.043s0.712-0.018 1.063-0.043h0.012c6.492-0.484 11.851-5.266 13.068-11.661s-2.011-12.811-7.872-15.646zM16.533 25.6h-1.067c-5.005-0.006-9.061-4.062-9.067-9.067v-3.733c0-0.295 0.239-0.533 0.533-0.533s0.533 0.239 0.533 0.533v3.733c0.005 4.416 3.584 7.995 8 8h1.067c4.416-0.005 7.995-3.584 8-8v-3.733c0-0.295 0.239-0.533 0.533-0.533s0.533 0.239 0.533 0.533v3.733c-0.006 5.005-4.062 9.061-9.067 9.067zM10.667 15.467v-1.6h10.667v2.667c-0.003 2.65-2.15 4.797-4.8 4.8h-1.067c-2.65-0.003-4.797-2.15-4.8-4.8v-1.067zM21.333 12.8h-10.667v-1.6h10.667v1.6zM9.6 14.933h-1.067v-1.067h1.067v1.067zM23.467 16.533c-0.004 3.827-3.106 6.929-6.933 6.933h-1.067c-3.827-0.004-6.929-3.106-6.933-6.933v-0.533h1.067v0.533c0.004 3.239 2.628 5.863 5.867 5.867h1.067c3.239-0.004 5.863-2.628 5.867-5.867v-0.533h1.067v0.533zM23.467 14.933h-1.067v-1.067h1.067v1.067zM15.467 1.067h1.067c2.65 0.003 4.797 2.15 4.8 4.8v4.267h-10.667v-4.267c0.003-2.65 2.15-4.797 4.8-4.8zM2.667 17.6c0.009-4.87 2.665-9.349 6.933-11.693v6.893h-1.067c0-0.884-0.716-1.6-1.6-1.6s-1.6 0.716-1.6 1.6v3.733c0.007 5.181 3.915 9.525 9.067 10.076v4.224c-6.691-0.817-11.724-6.493-11.733-13.234zM15.467 30.92v-4.253h1.067v4.253c-0.177 0.007-0.355 0.013-0.533 0.013s-0.356-0.006-0.533-0.013zM17.6 30.834v-4.224c5.151-0.552 9.060-4.895 9.067-10.076v-3.733c0-0.884-0.716-1.6-1.6-1.6s-1.6 0.716-1.6 1.6h-1.067v-6.893c5.083 2.78 7.788 8.525 6.693 14.215s-5.741 10.019-11.493 10.713z"></path>
<path d="M12.267 5.333c0.295 0 0.533-0.239 0.533-0.533s-0.239-0.533-0.533-0.533c-0.295 0-0.533 0.239-0.533 0.533s0.239 0.533 0.533 0.533z"></path>
<path d="M13.867 6.4c0.295 0 0.533-0.239 0.533-0.533s-0.239-0.533-0.533-0.533c-0.295 0-0.533 0.239-0.533 0.533s0.239 0.533 0.533 0.533z"></path>
<path d="M13.867 8.533c0.295 0 0.533-0.239 0.533-0.533s-0.239-0.533-0.533-0.533c-0.295 0-0.533 0.239-0.533 0.533s0.239 0.533 0.533 0.533z"></path>
<path d="M13.867 4.267c0.295 0 0.533-0.239 0.533-0.533s-0.239-0.533-0.533-0.533c-0.295 0-0.533 0.239-0.533 0.533s0.239 0.533 0.533 0.533z"></path>
<path d="M16 3.2c0.295 0 0.533-0.239 0.533-0.533s-0.239-0.533-0.533-0.533c-0.295 0-0.533 0.239-0.533 0.533s0.239 0.533 0.533 0.533z"></path>
<path d="M12.267 7.467c0.295 0 0.533-0.239 0.533-0.533s-0.239-0.533-0.533-0.533c-0.295 0-0.533 0.239-0.533 0.533s0.239 0.533 0.533 0.533z"></path>
<path d="M12.267 9.6c0.295 0 0.533-0.239 0.533-0.533s-0.239-0.533-0.533-0.533c-0.295 0-0.533 0.239-0.533 0.533s0.239 0.533 0.533 0.533z"></path>
<path d="M19.733 5.333c0.294 0 0.533-0.239 0.533-0.533s-0.239-0.533-0.533-0.533c-0.295 0-0.533 0.239-0.533 0.533s0.239 0.533 0.533 0.533z"></path>
<path d="M18.133 6.4c0.295 0 0.533-0.239 0.533-0.533s-0.239-0.533-0.533-0.533c-0.294 0-0.533 0.239-0.533 0.533s0.239 0.533 0.533 0.533z"></path>
<path d="M18.133 8.533c0.295 0 0.533-0.239 0.533-0.533s-0.239-0.533-0.533-0.533c-0.294 0-0.533 0.239-0.533 0.533s0.239 0.533 0.533 0.533z"></path>
<path d="M18.133 4.267c0.295 0 0.533-0.239 0.533-0.533s-0.239-0.533-0.533-0.533c-0.294 0-0.533 0.239-0.533 0.533s0.239 0.533 0.533 0.533z"></path>
<path d="M19.733 7.467c0.294 0 0.533-0.239 0.533-0.533s-0.239-0.533-0.533-0.533c-0.295 0-0.533 0.239-0.533 0.533s0.239 0.533 0.533 0.533z"></path>
<path d="M19.733 9.6c0.294 0 0.533-0.239 0.533-0.533s-0.239-0.533-0.533-0.533c-0.295 0-0.533 0.239-0.533 0.533s0.239 0.533 0.533 0.533z"></path>
<path d="M16 5.333c0.295 0 0.533-0.239 0.533-0.533s-0.239-0.533-0.533-0.533c-0.295 0-0.533 0.239-0.533 0.533s0.239 0.533 0.533 0.533z"></path>
<path d="M16 7.467c0.295 0 0.533-0.239 0.533-0.533s-0.239-0.533-0.533-0.533c-0.295 0-0.533 0.239-0.533 0.533s0.239 0.533 0.533 0.533z"></path>
<path d="M16 9.6c0.295 0 0.533-0.239 0.533-0.533s-0.239-0.533-0.533-0.533c-0.295 0-0.533 0.239-0.533 0.533s0.239 0.533 0.533 0.533z"></path>
</symbol>
<symbol id="icon-headphones" viewBox="0 0 32 32">
<path d="M4.265 17.154c-0.396 0.455-0.685 0.992-0.846 1.574-0.057 0.472 0.097 1.095 1.010 1.615-0.265 0.315-0.445 0.692-0.525 1.095-0.071 0.489 0.081 0.985 0.414 1.35 0.044 0.049 0.091 0.094 0.141 0.136-0.064 0.485 0.128 0.968 0.506 1.278 0.192 0.14 0.4 0.257 0.619 0.35 0.179 0.067 0.344 0.167 0.487 0.293 0.193 0.221 0.184 0.572 0.146 1.124-0.091 0.567-0.016 1.148 0.218 1.672 0.383 0.63 1.072 1.008 1.809 0.992 0.603-0.017 1.197-0.147 1.753-0.383 1.288-0.468 2.352-0.906 3.298-1.36 0.157 0.583 0.245 1.715-0.203 3.816-0.040 0.12-0.048 0.248-0.023 0.372 0.058 0.233 0.268 0.397 0.509 0.397h12.577c0.211-0 0.401-0.127 0.483-0.322s0.038-0.419-0.109-0.57c-0.827-0.907-1.568-1.888-2.213-2.932-1.070-1.696-1.336-3.778-0.727-5.688 0.537-1.342 1.287-2.588 2.22-3.692 0.396-0.525 0.805-1.065 1.17-1.617 1.562-2.353 1.993-4.794 1.252-7.059-0.789-2.234-2.272-4.156-4.233-5.485-0.853-0.569-1.779-1.021-2.753-1.341v-0.148c-0.002-1.448-1.175-2.621-2.623-2.623h-2.098c-1.326 0.004-2.44 1-2.592 2.317-5.346 0.759-8.333 3.365-8.634 7.567-0.028 0.768 0.027 1.537 0.165 2.293 0.158 0.792 0.198 1.603 0.119 2.407-0.131 0.9-0.788 1.828-1.317 2.57zM14.951 2.623c0-0.869 0.705-1.574 1.574-1.574h2.098c0.869 0 1.574 0.705 1.574 1.574v1.049c0 0.29-0.235 0.525-0.525 0.525h-4.197c-0.29 0-0.525-0.235-0.525-0.525v-1.049zM17.574 9.967c2.897 0 5.246 2.349 5.246 5.246s-2.349 5.246-5.246 5.246c-2.897 0-5.246-2.349-5.246-5.246 0.003-2.896 2.35-5.243 5.246-5.246zM17.574 8.918c-0.531 0.002-1.060 0.072-1.574 0.207v-3.879h3.148v3.882c-0.514-0.136-1.042-0.207-1.574-0.21zM6.505 12.025c-0.126-0.682-0.179-1.375-0.157-2.068 0.318-4.477 4.155-6.061 7.554-6.58v0.295c0.003 0.665 0.423 1.256 1.049 1.477v4.348c-2.69 1.233-4.158 4.174-3.527 7.065s3.191 4.953 6.15 4.953c2.959 0 5.519-2.061 6.15-4.953s-0.837-5.832-3.527-7.065v-4.348c0.556-0.198 0.954-0.692 1.029-1.278 0.769 0.281 1.502 0.654 2.183 1.109 1.772 1.197 3.114 2.93 3.83 4.945 0.648 1.977 0.269 4.046-1.13 6.152-0.347 0.525-0.729 1.030-1.133 1.564-1.005 1.19-1.809 2.537-2.379 3.987-0.708 2.204-0.406 4.608 0.826 6.567 0.482 0.774 1.010 1.518 1.579 2.231h-10.78c0.334-1.768 0.337-3.112 0.019-4.023 1.228-0.632 2.367-1.421 3.39-2.349l0.126-0.112c0.189-0.168 0.41-0.367 0.624-0.577 0.199-0.206 0.196-0.533-0.006-0.735s-0.529-0.206-0.735-0.007c-0.199 0.198-0.404 0.38-0.577 0.536l-0.137 0.122c-1.076 0.975-2.287 1.791-3.595 2.424-1.196 0.594-2.428 1.115-3.687 1.559-0.434 0.191-0.9 0.299-1.373 0.32-0.359 0.018-0.703-0.15-0.909-0.445-0.126-0.352-0.158-0.731-0.092-1.099 0.133-0.659-0.015-1.343-0.407-1.889-0.235-0.24-0.518-0.427-0.831-0.55-0.146-0.061-0.286-0.137-0.417-0.227-0.063-0.062-0.103-0.143-0.114-0.231 0.232-0.109 0.351-0.369 0.283-0.615s-0.305-0.408-0.559-0.382c-0.054-0.004-0.103-0.031-0.136-0.073-0.112-0.127-0.165-0.295-0.145-0.463 0.134-0.422 0.388-0.796 0.732-1.075 0.126-0.127 0.178-0.31 0.139-0.484s-0.165-0.317-0.333-0.378c-0.251-0.092-1.067-0.424-1.019-0.82 0.168-0.392 0.39-0.759 0.66-1.090 0.594-0.837 1.332-1.879 1.499-3.027 0.097-0.904 0.059-1.818-0.115-2.71z"></path>
<path d="M17.574 18.885c2.028 0 3.672-1.644 3.672-3.672s-1.644-3.672-3.672-3.672c-2.028 0-3.672 1.644-3.672 3.672 0.002 2.027 1.645 3.67 3.672 3.672zM17.574 12.59c1.449 0 2.623 1.174 2.623 2.623s-1.174 2.623-2.623 2.623c-1.449 0-2.623-1.174-2.623-2.623 0.002-1.448 1.175-2.621 2.623-2.623z"></path>
</symbol>
<symbol id="icon-radio" viewBox="0 0 32 32">
<path d="M28.267 8.533h-21.333v-1.188l21.355-5.593c0.075 0.254 0.326 0.415 0.588 0.377s0.457-0.263 0.456-0.529v-1.067c0-0.295-0.239-0.533-0.533-0.533s-0.533 0.239-0.533 0.533v0.122l-21.476 5.624c-0.311-0.685-1.056-1.061-1.792-0.904s-1.262 0.805-1.265 1.557v1.6c-2.061 0.003-3.731 1.673-3.733 3.733v13.867c0.003 2.061 1.673 3.731 3.733 3.733v1.067c0 0.589 0.478 1.067 1.067 1.067h4.267c0.589 0 1.067-0.478 1.067-1.067v-1.067h11.733v1.067c0 0.589 0.478 1.067 1.067 1.067h4.267c0.589 0 1.067-0.478 1.067-1.067v-1.067c2.061-0.003 3.731-1.673 3.733-3.733v-13.867c-0.003-2.061-1.673-3.731-3.733-3.733zM4.8 6.933c0-0.295 0.239-0.533 0.533-0.533s0.533 0.239 0.533 0.533v1.6h-1.067v-1.6zM9.067 30.933h-4.267v-1.067h4.267v1.067zM27.2 30.933h-4.267v-1.067h4.267v1.067zM30.933 26.133c-0.002 1.472-1.195 2.665-2.667 2.667h-24.533c-1.472-0.002-2.665-1.195-2.667-2.667v-13.867c0.002-1.472 1.195-2.665 2.667-2.667h24.533c1.472 0.002 2.665 1.195 2.667 2.667v13.867z"></path>
<path d="M3.2 22.933c0.295 0 0.533-0.239 0.533-0.533s-0.239-0.533-0.533-0.533c-0.295 0-0.533 0.239-0.533 0.533s0.239 0.533 0.533 0.533z"></path>
<path d="M3.2 25.067c0.295 0 0.533-0.239 0.533-0.533s-0.239-0.533-0.533-0.533-0.533 0.239-0.533 0.533c0 0.295 0.239 0.533 0.533 0.533z"></path>
<path d="M3.2 27.2c0.295 0 0.533-0.239 0.533-0.533s-0.239-0.533-0.533-0.533-0.533 0.239-0.533 0.533c0 0.294 0.239 0.533 0.533 0.533z"></path>
<path d="M5.333 22.933c0.295 0 0.533-0.239 0.533-0.533s-0.239-0.533-0.533-0.533c-0.295 0-0.533 0.239-0.533 0.533s0.239 0.533 0.533 0.533z"></path>
<path d="M5.333 25.067c0.295 0 0.533-0.239 0.533-0.533s-0.239-0.533-0.533-0.533-0.533 0.239-0.533 0.533c0 0.295 0.239 0.533 0.533 0.533z"></path>
<path d="M5.333 27.2c0.295 0 0.533-0.239 0.533-0.533s-0.239-0.533-0.533-0.533-0.533 0.239-0.533 0.533c0 0.294 0.239 0.533 0.533 0.533z"></path>
<path d="M7.467 22.933c0.295 0 0.533-0.239 0.533-0.533s-0.239-0.533-0.533-0.533c-0.295 0-0.533 0.239-0.533 0.533s0.239 0.533 0.533 0.533z"></path>
<path d="M7.467 25.067c0.295 0 0.533-0.239 0.533-0.533s-0.239-0.533-0.533-0.533-0.533 0.239-0.533 0.533c0 0.295 0.239 0.533 0.533 0.533z"></path>
<path d="M7.467 27.2c0.295 0 0.533-0.239 0.533-0.533s-0.239-0.533-0.533-0.533-0.533 0.239-0.533 0.533c0 0.294 0.239 0.533 0.533 0.533z"></path>
<path d="M24.533 22.933c0.295 0 0.533-0.239 0.533-0.533s-0.239-0.533-0.533-0.533c-0.294 0-0.533 0.239-0.533 0.533s0.239 0.533 0.533 0.533z"></path>
<path d="M24.533 25.067c0.295 0 0.533-0.239 0.533-0.533s-0.239-0.533-0.533-0.533c-0.294 0-0.533 0.239-0.533 0.533s0.239 0.533 0.533 0.533z"></path>
<path d="M24.533 27.2c0.295 0 0.533-0.239 0.533-0.533s-0.239-0.533-0.533-0.533c-0.294 0-0.533 0.239-0.533 0.533s0.239 0.533 0.533 0.533z"></path>
<path d="M26.667 22.933c0.294 0 0.533-0.239 0.533-0.533s-0.239-0.533-0.533-0.533c-0.295 0-0.533 0.239-0.533 0.533s0.239 0.533 0.533 0.533z"></path>
<path d="M26.667 25.067c0.294 0 0.533-0.239 0.533-0.533s-0.239-0.533-0.533-0.533c-0.295 0-0.533 0.239-0.533 0.533s0.239 0.533 0.533 0.533z"></path>
<path d="M26.667 27.2c0.294 0 0.533-0.239 0.533-0.533s-0.239-0.533-0.533-0.533c-0.295 0-0.533 0.239-0.533 0.533s0.239 0.533 0.533 0.533z"></path>
<path d="M28.8 22.933c0.295 0 0.533-0.239 0.533-0.533s-0.239-0.533-0.533-0.533c-0.295 0-0.533 0.239-0.533 0.533s0.239 0.533 0.533 0.533z"></path>
<path d="M28.8 25.067c0.295 0 0.533-0.239 0.533-0.533s-0.239-0.533-0.533-0.533-0.533 0.239-0.533 0.533c0 0.295 0.239 0.533 0.533 0.533z"></path>
<path d="M28.8 27.2c0.295 0 0.533-0.239 0.533-0.533s-0.239-0.533-0.533-0.533-0.533 0.239-0.533 0.533c0 0.294 0.239 0.533 0.533 0.533z"></path>
<path d="M16 21.333c-1.767 0-3.2 1.433-3.2 3.2s1.433 3.2 3.2 3.2c1.767 0 3.2-1.433 3.2-3.2-0.002-1.767-1.433-3.198-3.2-3.2zM16 26.667c-1.073 0.001-1.979-0.796-2.115-1.86s0.542-2.063 1.581-2.331v0.991c0 0.295 0.239 0.533 0.533 0.533s0.533-0.239 0.533-0.533v-0.991c1.039 0.267 1.717 1.266 1.581 2.331s-1.042 1.862-2.115 1.86z"></path>
<path d="M27.733 11.733h-1.698c-0.225-0.637-0.826-1.064-1.502-1.067h-17.067c-0.676 0.003-1.277 0.43-1.502 1.067h-1.698c-0.632-0.003-1.206 0.369-1.463 0.947s-0.147 1.253 0.279 1.72c-0.555 0.603-0.555 1.53 0 2.133-0.426 0.467-0.536 1.142-0.279 1.72s0.831 0.949 1.463 0.947h1.698c0.225 0.637 0.826 1.064 1.502 1.067h17.067c0.676-0.003 1.277-0.43 1.502-1.067h1.698c0.632 0.003 1.206-0.369 1.463-0.947s0.147-1.253-0.279-1.72c0.555-0.603 0.555-1.53 0-2.133 0.426-0.467 0.536-1.142 0.279-1.72s-0.831-0.949-1.463-0.947zM28.267 13.333c0 0.295-0.239 0.533-0.533 0.533h-1.6v-1.067h1.6c0.295 0 0.533 0.239 0.533 0.533zM28.267 15.467c0 0.295-0.239 0.533-0.533 0.533h-1.6v-1.067h1.6c0.295 0 0.533 0.239 0.533 0.533zM3.733 15.467c0-0.295 0.239-0.533 0.533-0.533h1.6v1.067h-1.6c-0.295 0-0.533-0.239-0.533-0.533zM4.267 12.8h1.6v1.067h-1.6c-0.295 0-0.533-0.239-0.533-0.533s0.239-0.533 0.533-0.533zM3.733 17.6c0-0.295 0.239-0.533 0.533-0.533h1.6v1.067h-1.6c-0.295 0-0.533-0.239-0.533-0.533zM24.533 19.2h-17.067c-0.295 0-0.533-0.239-0.533-0.533v-6.4c0-0.295 0.239-0.533 0.533-0.533h17.067c0.295 0 0.533 0.239 0.533 0.533v6.4c0 0.295-0.239 0.533-0.533 0.533zM27.733 18.133h-1.6v-1.067h1.6c0.295 0 0.533 0.239 0.533 0.533s-0.239 0.533-0.533 0.533z"></path>
<path d="M9.6 13.333h1.067c0.294 0 0.533-0.239 0.533-0.533s-0.239-0.533-0.533-0.533h-1.067c-0.295 0-0.533 0.239-0.533 0.533s0.239 0.533 0.533 0.533z"></path>
<path d="M10.667 17.6h-1.067c-0.295 0-0.533 0.239-0.533 0.533s0.239 0.533 0.533 0.533h1.067c0.294 0 0.533-0.239 0.533-0.533s-0.239-0.533-0.533-0.533z"></path>
<path d="M8.533 14.933c0.295 0 0.533-0.239 0.533-0.533v-0.533c0-0.295-0.239-0.533-0.533-0.533s-0.533 0.239-0.533 0.533v0.533c0 0.295 0.239 0.533 0.533 0.533z"></path>
<path d="M9.067 16.533c0-0.294-0.239-0.533-0.533-0.533s-0.533 0.239-0.533 0.533v0.533c0 0.294 0.239 0.533 0.533 0.533s0.533-0.239 0.533-0.533v-0.533z"></path>
<path d="M11.733 13.333c-0.295 0-0.533 0.239-0.533 0.533v0.533c0 0.295 0.239 0.533 0.533 0.533s0.533-0.239 0.533-0.533v-0.533c0-0.295-0.239-0.533-0.533-0.533z"></path>
<path d="M11.733 16c-0.295 0-0.533 0.239-0.533 0.533v0.533c0 0.294 0.239 0.533 0.533 0.533s0.533-0.239 0.533-0.533v-0.533c0-0.294-0.239-0.533-0.533-0.533z"></path>
<path d="M16 13.333h1.067c0.294 0 0.533-0.239 0.533-0.533s-0.239-0.533-0.533-0.533h-1.067c-0.295 0-0.533 0.239-0.533 0.533s0.239 0.533 0.533 0.533z"></path>
<path d="M17.067 17.6h-1.067c-0.295 0-0.533 0.239-0.533 0.533s0.239 0.533 0.533 0.533h1.067c0.294 0 0.533-0.239 0.533-0.533s-0.239-0.533-0.533-0.533z"></path>
<path d="M14.933 14.933c0.295 0 0.533-0.239 0.533-0.533v-0.533c0-0.295-0.239-0.533-0.533-0.533s-0.533 0.239-0.533 0.533v0.533c0 0.295 0.239 0.533 0.533 0.533z"></path>
<path d="M15.467 16.533c0-0.294-0.239-0.533-0.533-0.533s-0.533 0.239-0.533 0.533v0.533c0 0.294 0.239 0.533 0.533 0.533s0.533-0.239 0.533-0.533v-0.533z"></path>
<path d="M18.133 13.333c-0.294 0-0.533 0.239-0.533 0.533v0.533c0 0.295 0.239 0.533 0.533 0.533s0.533-0.239 0.533-0.533v-0.533c0-0.295-0.239-0.533-0.533-0.533z"></path>
<path d="M18.133 16c-0.294 0-0.533 0.239-0.533 0.533v0.533c0 0.294 0.239 0.533 0.533 0.533s0.533-0.239 0.533-0.533v-0.533c0-0.294-0.239-0.533-0.533-0.533z"></path>
<path d="M21.333 13.333h1.067c0.295 0 0.533-0.239 0.533-0.533s-0.239-0.533-0.533-0.533h-1.067c-0.294 0-0.533 0.239-0.533 0.533s0.239 0.533 0.533 0.533z"></path>
<path d="M22.4 17.6h-1.067c-0.294 0-0.533 0.239-0.533 0.533s0.239 0.533 0.533 0.533h1.067c0.295 0 0.533-0.239 0.533-0.533s-0.239-0.533-0.533-0.533z"></path>
<path d="M20.267 14.933c0.295 0 0.533-0.239 0.533-0.533v-0.533c0-0.295-0.239-0.533-0.533-0.533s-0.533 0.239-0.533 0.533v0.533c0 0.295 0.239 0.533 0.533 0.533z"></path>
<path d="M20.8 16.533c0-0.294-0.239-0.533-0.533-0.533s-0.533 0.239-0.533 0.533v0.533c0 0.294 0.239 0.533 0.533 0.533s0.533-0.239 0.533-0.533v-0.533z"></path>
<path d="M23.467 13.333c-0.295 0-0.533 0.239-0.533 0.533v0.533c0 0.295 0.239 0.533 0.533 0.533s0.533-0.239 0.533-0.533v-0.533c0-0.295-0.239-0.533-0.533-0.533z"></path>
<path d="M23.467 16c-0.295 0-0.533 0.239-0.533 0.533v0.533c0 0.294 0.239 0.533 0.533 0.533s0.533-0.239 0.533-0.533v-0.533c0-0.294-0.239-0.533-0.533-0.533z"></path>
<path d="M13.333 18.667c0.295 0 0.533-0.239 0.533-0.533s-0.239-0.533-0.533-0.533c-0.294 0-0.533 0.239-0.533 0.533s0.239 0.533 0.533 0.533z"></path>
</symbol>
<symbol id="icon-location" viewBox="0 0 32 32">
<path d="M25.602 3.964c-2.556-2.556-5.955-3.964-9.57-3.964s-7.014 1.408-9.57 3.964c-2.556 2.556-3.964 5.955-3.964 9.57 0 7.313 6.915 13.396 10.63 16.664 0.516 0.454 0.962 0.846 1.317 1.178 0.445 0.416 1.016 0.624 1.587 0.624s1.142-0.208 1.587-0.624c0.355-0.332 0.801-0.724 1.317-1.178 3.715-3.268 10.63-9.351 10.63-16.664-0-3.615-1.408-7.014-3.964-9.57zM17.698 28.791c-0.528 0.464-0.983 0.865-1.359 1.216-0.173 0.161-0.443 0.161-0.615 0-0.376-0.351-0.831-0.752-1.359-1.216-3.492-3.072-9.993-8.791-9.993-15.256 0-6.429 5.231-11.66 11.66-11.66s11.66 5.231 11.66 11.66c0 6.466-6.501 12.184-9.993 15.256z"></path>
<path d="M16.031 7.059c-3.289 0-5.964 2.676-5.964 5.964s2.676 5.964 5.964 5.964c3.289 0 5.964-2.676 5.964-5.964s-2.676-5.964-5.964-5.964zM16.031 17.113c-2.255 0-4.090-1.835-4.090-4.090s1.835-4.090 4.090-4.090c2.255 0 4.090 1.835 4.090 4.090s-1.835 4.090-4.090 4.090z"></path>
</symbol>
<symbol id="icon-telephone" viewBox="0 0 32 32">
<path d="M6.548 21.254c3.154 3.77 6.95 6.738 11.283 8.838 1.65 0.782 3.856 1.709 6.314 1.868 0.152 0.007 0.298 0.013 0.451 0.013 1.65 0 2.975-0.57 4.055-1.742 0.007-0.007 0.020-0.020 0.026-0.033 0.384-0.464 0.822-0.881 1.279-1.325 0.311-0.298 0.629-0.61 0.934-0.928 1.411-1.471 1.411-3.339-0.013-4.764l-3.982-3.982c-0.676-0.702-1.484-1.073-2.332-1.073s-1.663 0.371-2.359 1.067l-2.372 2.372c-0.219-0.126-0.444-0.238-0.656-0.345-0.265-0.133-0.51-0.258-0.729-0.398-2.16-1.371-4.121-3.16-5.996-5.459-0.947-1.199-1.583-2.206-2.027-3.233 0.623-0.563 1.206-1.153 1.769-1.729 0.199-0.205 0.404-0.411 0.61-0.616 0.716-0.716 1.1-1.544 1.1-2.385s-0.378-1.67-1.1-2.385l-1.974-1.974c-0.232-0.232-0.451-0.457-0.676-0.689-0.437-0.451-0.894-0.914-1.345-1.332-0.682-0.669-1.484-1.020-2.332-1.020-0.841 0-1.65 0.351-2.359 1.027l-2.478 2.478c-0.901 0.901-1.411 1.994-1.517 3.26-0.126 1.583 0.166 3.266 0.921 5.3 1.159 3.147 2.909 6.069 5.506 9.189zM1.738 6.904c0.079-0.881 0.417-1.617 1.053-2.253l2.465-2.465c0.384-0.371 0.808-0.563 1.219-0.563 0.404 0 0.815 0.192 1.193 0.576 0.444 0.411 0.861 0.841 1.312 1.299 0.225 0.232 0.457 0.464 0.689 0.702l1.974 1.974c0.411 0.411 0.623 0.828 0.623 1.239s-0.212 0.828-0.623 1.239c-0.205 0.205-0.411 0.417-0.616 0.623-0.616 0.623-1.193 1.212-1.829 1.776-0.013 0.013-0.020 0.020-0.033 0.033-0.55 0.55-0.464 1.073-0.331 1.471 0.007 0.020 0.013 0.033 0.020 0.053 0.51 1.226 1.219 2.392 2.325 3.783 1.988 2.451 4.081 4.353 6.387 5.817 0.285 0.186 0.59 0.331 0.875 0.477 0.265 0.133 0.51 0.258 0.729 0.398 0.026 0.013 0.046 0.026 0.073 0.040 0.219 0.113 0.431 0.166 0.643 0.166 0.53 0 0.875-0.338 0.987-0.451l2.478-2.478c0.384-0.384 0.802-0.59 1.212-0.59 0.504 0 0.914 0.311 1.173 0.59l3.995 3.988c0.795 0.795 0.788 1.656-0.020 2.498-0.278 0.298-0.57 0.583-0.881 0.881-0.464 0.451-0.947 0.914-1.385 1.438-0.762 0.822-1.67 1.206-2.842 1.206-0.113 0-0.232-0.007-0.345-0.013-2.173-0.139-4.194-0.987-5.711-1.709-4.121-1.994-7.738-4.823-10.74-8.414-2.471-2.975-4.134-5.744-5.234-8.712-0.682-1.822-0.941-3.286-0.835-4.618z"></path>
</symbol>
<symbol id="icon-left-btn" viewBox="0 0 32 32">
<path d="M21.414 28.728c0.375-0.375 0.585-0.884 0.585-1.414s-0.211-1.039-0.585-1.414l-9.9-9.9 9.9-9.9c0.364-0.377 0.566-0.882 0.561-1.407s-0.215-1.026-0.586-1.397-0.872-0.581-1.397-0.586c-0.524-0.005-1.030 0.197-1.407 0.561l-11.314 11.314c-0.375 0.375-0.586 0.884-0.586 1.414s0.211 1.039 0.586 1.414l11.314 11.314c0.375 0.375 0.884 0.586 1.414 0.586s1.039-0.211 1.414-0.586z"></path>
</symbol>
<symbol id="icon-right-btn" viewBox="0 0 32 32">
<path d="M10.586 3.272c-0.375 0.375-0.585 0.884-0.585 1.414s0.211 1.039 0.585 1.414l9.9 9.9-9.9 9.9c-0.364 0.377-0.566 0.882-0.561 1.407s0.215 1.026 0.586 1.397c0.371 0.371 0.872 0.581 1.397 0.586s1.030-0.197 1.407-0.561l11.314-11.314c0.375-0.375 0.586-0.884 0.586-1.414s-0.211-1.039-0.586-1.414l-11.314-11.314c-0.375-0.375-0.884-0.586-1.414-0.586s-1.039 0.211-1.414 0.586z"></path>
</symbol>
<symbol id="icon-youtube" viewBox="0 0 32 32">
<path d="M16 5.333c1.14 0 2.309 0.029 3.443 0.077l1.339 0.064 1.281 0.076 1.2 0.081 1.096 0.085c1.19 0.091 2.309 0.598 3.161 1.433s1.382 1.944 1.497 3.131l0.053 0.567 0.1 1.213c0.093 1.257 0.163 2.628 0.163 3.939s-0.069 2.681-0.163 3.939l-0.1 1.213-0.053 0.567c-0.115 1.188-0.645 2.297-1.498 3.132s-1.972 1.342-3.162 1.432l-1.093 0.084-1.2 0.083-1.283 0.076-1.339 0.064c-1.147 0.050-2.295 0.075-3.443 0.077-1.148-0.002-2.296-0.028-3.443-0.077l-1.339-0.064-1.281-0.076-1.2-0.083-1.096-0.084c-1.19-0.091-2.309-0.598-3.161-1.433s-1.382-1.944-1.497-3.131l-0.053-0.567-0.1-1.213c-0.102-1.311-0.156-2.624-0.163-3.939 0-1.311 0.069-2.681 0.163-3.939l0.1-1.213 0.053-0.567c0.115-1.187 0.645-2.296 1.497-3.131s1.971-1.342 3.16-1.433l1.095-0.085 1.2-0.081 1.283-0.076 1.339-0.064c1.147-0.050 2.296-0.075 3.444-0.077zM13.333 12.767v6.467c0 0.616 0.667 1 1.2 0.693l5.6-3.233c0.122-0.070 0.223-0.171 0.293-0.293s0.107-0.26 0.107-0.4c0-0.141-0.037-0.279-0.107-0.4s-0.172-0.223-0.293-0.293l-5.6-3.232c-0.122-0.070-0.26-0.107-0.4-0.107s-0.278 0.037-0.4 0.107c-0.122 0.070-0.223 0.171-0.293 0.293s-0.107 0.26-0.107 0.4v-0.001z"></path>
</symbol>
<symbol id="icon-instagram" viewBox="0 0 32 32">
<path d="M10.4 2.667h11.2c4.267 0 7.733 3.467 7.733 7.733v11.2c0 2.051-0.815 4.018-2.265 5.468s-3.417 2.265-5.468 2.265h-11.2c-4.267 0-7.733-3.467-7.733-7.733v-11.2c0-2.051 0.815-4.018 2.265-5.468s3.417-2.265 5.468-2.265zM10.133 5.333c-1.273 0-2.494 0.506-3.394 1.406s-1.406 2.121-1.406 3.394v11.733c0 2.653 2.147 4.8 4.8 4.8h11.733c1.273 0 2.494-0.506 3.394-1.406s1.406-2.121 1.406-3.394v-11.733c0-2.653-2.147-4.8-4.8-4.8h-11.733zM23 7.333c0.442 0 0.866 0.176 1.179 0.488s0.488 0.736 0.488 1.178c0 0.442-0.176 0.866-0.488 1.178s-0.737 0.488-1.179 0.488c-0.442 0-0.866-0.176-1.179-0.488s-0.488-0.736-0.488-1.178c0-0.442 0.176-0.866 0.488-1.178s0.737-0.488 1.179-0.488zM16 9.333c1.768 0 3.464 0.702 4.714 1.953s1.953 2.946 1.953 4.714-0.702 3.464-1.953 4.714c-1.25 1.25-2.946 1.953-4.714 1.953s-3.464-0.702-4.714-1.953c-1.25-1.25-1.953-2.946-1.953-4.714s0.702-3.464 1.953-4.714c1.25-1.25 2.946-1.953 4.714-1.953zM16 12c-1.061 0-2.078 0.421-2.828 1.172s-1.172 1.768-1.172 2.828c0 1.061 0.421 2.078 1.172 2.828s1.768 1.172 2.828 1.172c1.061 0 2.078-0.421 2.828-1.172s1.172-1.768 1.172-2.828c0-1.061-0.421-2.078-1.172-2.828s-1.768-1.172-2.828-1.172z"></path>
</symbol>
<symbol id="icon-facebook" viewBox="0 0 32 32">
<path d="M18.667 18h3.333l1.333-5.333h-4.667v-2.667c0-1.373 0-2.667 2.667-2.667h2v-4.48c-0.435-0.057-2.076-0.187-3.809-0.187-3.62 0-6.191 2.209-6.191 6.267v3.733h-4v5.333h4v11.333h5.333v-11.333z"></path>
</symbol>
<symbol id="icon-twitter" viewBox="0 0 32 32">
<path d="M13.984 19.535l6.349 8.465h9.333l-10.477-13.971 8.717-10.029h-3.533l-6.823 7.848-5.884-7.848h-9.333l10.013 13.353-9.253 10.647h3.533l7.357-8.465zM21.667 25.333l-14-18.667h2.667l14 18.667h-2.667z"></path>
</symbol>
</defs>
</svg>
