<svg width="847" height="633" viewBox="0 0 847 633" fill="none" xmlns="http://www.w3.org/2000/svg">
<path d="M406.096 598.753L286.639 540.271L313.406 527.176C315.691 526.071 316.824 524.695 316.824 523.064C316.802 521.434 315.67 520.076 313.406 518.953L280.422 502.816C278.137 501.693 275.338 501.149 272.027 501.131C268.694 501.131 265.896 501.693 263.631 502.816L236.886 515.91L205.163 500.371C202.877 499.248 200.079 498.704 196.768 498.686C193.457 498.686 190.637 499.248 188.372 500.371L147.613 520.312C145.327 521.434 144.195 522.811 144.195 524.423C144.195 526.053 145.327 527.411 147.613 528.534L179.336 544.074L81.3261 592.052C79.0403 593.175 77.9081 594.533 77.9081 596.163C77.9081 597.793 79.0403 599.152 81.3261 600.274L114.309 616.412C119.693 619.056 125.503 620.578 131.72 620.976L342.031 632.857C346.175 633.056 349.401 632.948 351.665 632.549C353.951 632.133 356.429 631.282 359.142 629.959L406.118 606.958C408.382 605.835 409.536 604.476 409.536 602.846C409.514 601.234 408.382 599.858 406.096 598.753ZM185.232 589.915L230.648 567.673L287.878 595.692L185.232 589.915ZM585.155 446.525C576.631 441.961 567.51 437.288 557.768 432.524C548.027 427.743 538.692 423.396 529.784 419.43C517.971 414.25 505.089 410.048 491.204 406.788C477.297 403.528 462.834 401.843 447.817 401.68C432.778 401.535 417.376 403.075 401.632 406.317C385.866 409.577 370.208 414.992 354.656 422.617C339.104 430.224 328.017 437.904 321.374 445.619C314.73 453.335 311.568 460.869 311.889 468.222C312.188 475.576 315.67 482.676 322.314 489.467C328.936 496.277 337.566 502.562 348.119 508.358C356.216 512.723 365.124 517.287 374.865 522.068C384.606 526.832 394.155 531.305 403.49 535.471C415.325 540.651 428.164 544.853 442.07 548.113C455.956 551.373 470.418 553.057 485.457 553.22C500.496 553.365 515.898 551.826 531.642 548.584C547.408 545.342 563.066 539.908 578.618 532.283C594.17 524.658 605.278 516.997 611.9 509.282C618.523 501.566 621.684 494.032 621.385 486.678C621.065 479.325 617.604 472.243 610.96 465.433C604.338 458.605 595.729 452.32 585.155 446.525ZM541.597 498.904C539.311 501.856 535.06 504.844 528.844 507.887C522.627 510.93 516.518 513.013 510.494 514.135C504.47 515.258 498.616 515.639 492.913 515.276C487.209 514.914 481.548 513.972 475.951 512.451C470.354 510.93 464.843 508.956 459.459 506.51C441.195 498.596 423.784 490.065 407.186 480.937C402.208 478.293 398.107 475.63 394.903 472.95C391.677 470.269 389.754 467.498 389.156 464.654C388.537 461.811 389.37 458.913 391.656 455.979C393.941 453.027 398.192 450.038 404.409 446.996C410.625 443.953 416.756 441.87 422.759 440.747C428.762 439.624 434.679 439.226 440.49 439.534C446.3 439.841 451.94 440.783 457.451 442.341C462.941 443.917 468.389 445.927 473.772 448.354C492.229 456.577 509.639 465.107 526.045 473.928C530.809 476.662 534.804 479.379 538.03 482.078C541.234 484.776 543.199 487.511 543.947 490.301C544.652 493.09 543.883 495.969 541.597 498.904ZM843.531 384.619L724.073 326.137L750.84 313.042C753.126 311.937 754.258 310.561 754.258 308.931C754.237 307.3 753.105 305.942 750.819 304.819L717.836 288.682C715.55 287.559 712.751 287.015 709.44 286.997C706.108 286.997 703.309 287.559 701.045 288.682L674.299 301.776L642.577 286.237C640.291 285.114 637.492 284.57 634.181 284.552C630.87 284.552 628.05 285.114 625.786 286.237L585.027 306.178C582.741 307.3 581.609 308.677 581.609 310.289C581.609 311.919 582.741 313.277 585.027 314.4L616.75 329.94L518.74 377.918C516.454 379.041 515.322 380.399 515.322 382.029C515.322 383.659 516.454 385.018 518.74 386.14L551.723 402.278C557.127 404.922 562.917 406.444 569.154 406.842L779.466 418.723C783.61 418.923 786.836 418.814 789.1 418.415C791.386 417.999 793.864 417.148 796.577 415.825L843.553 392.824C845.838 391.701 846.971 390.342 846.971 388.712C846.949 387.1 845.817 385.724 843.531 384.619ZM622.646 375.781L668.062 353.558L725.291 381.576L622.646 375.781Z" fill="white"/>
<path d="M221.014 374.911C220.693 374.658 220.352 374.44 220.01 374.277C218.643 373.625 189.697 359.444 189.697 359.444V237.607C189.697 234.763 188.906 232.68 187.304 231.376C187.005 231.123 186.685 230.924 186.343 230.761C184.954 230.09 154.257 215.058 153.936 214.895C152.548 214.188 150.967 214.279 149.173 215.148L104.12 237.19C101.535 238.458 99.484 239.907 98.01 241.555C96.5147 243.203 94.8911 245.884 93.0967 249.615L3.88795 440.095C1.30311 445.782 0 451.994 0 458.732V500.008C0 502.87 0.790425 504.935 2.39259 506.239C2.71303 506.51 3.05479 506.728 3.39659 506.891C4.76377 507.543 35.4614 522.593 35.8032 522.756C37.1703 523.427 38.7511 523.336 40.5028 522.485L102.026 492.365V500.316C102.026 503.178 102.817 505.242 104.419 506.546C104.718 506.8 105.06 507.017 105.38 507.18C106.747 507.851 137.487 522.901 137.808 523.064C139.175 523.753 140.756 523.662 142.529 522.793L181.601 503.667C183.779 502.598 185.681 500.642 187.262 497.78C188.842 494.919 189.654 492.075 189.654 489.214V449.495L215.31 436.943C217.489 435.875 219.39 433.919 220.992 431.057C222.573 428.214 223.385 425.352 223.385 422.49V381.214C223.406 378.298 222.616 376.233 221.014 374.911Z" fill="#E100FF"/>
<path opacity="0.15" d="M130.246 257.403L130.075 257.874C128.686 259.54 127.17 262.076 125.525 265.499L36.3372 455.979C35.1837 458.478 34.3078 461.086 33.7096 463.803L1.04677 447.81C1.68764 445.13 2.52075 442.558 3.63158 440.095L92.819 249.615C94.6134 245.884 96.2583 243.185 97.775 241.555C97.775 241.555 97.775 241.519 97.8178 241.519L130.246 257.403Z" fill="#3E00FA"/>
<path opacity="0.3" d="M35.4393 522.539C31.765 520.746 4.72038 507.506 3.41728 506.891C3.09685 506.728 2.73369 506.492 2.41325 506.221C0.811084 504.935 0.0206909 502.87 0.0206909 499.99V458.75C0.0206909 454.965 0.512003 451.36 1.30241 447.919L33.7303 463.803C32.8972 467.226 32.4913 470.849 32.4913 474.634V515.91C32.4913 518.754 33.2817 520.819 34.8411 522.104C35.0334 522.267 35.247 522.412 35.4393 522.539Z" fill="#3E00FA"/>
<path opacity="0.3" d="M136.013 341.785V413.435L108.691 400.068L136.013 341.785Z" fill="#3E00FA"/>
<path opacity="0.4" d="M136.013 413.434L92.4345 434.734L108.691 400.068L136.013 413.434Z" fill="#3E00FA"/>
<path opacity="0.3" d="M136.889 522.412C137.082 522.557 137.252 522.684 137.445 522.811C133.813 521.054 106.683 507.778 105.423 507.162C105.06 506.999 104.739 506.782 104.461 506.51C102.859 505.224 102.069 503.123 102.069 500.28V492.329L134.497 476.445V516.182C134.497 519.025 135.287 521.126 136.889 522.412Z" fill="#3E00FA"/>
<path opacity="0.15" d="M219.647 374.132C218.365 373.661 216.934 373.788 215.374 374.567L189.697 387.136V359.48C189.697 359.462 216.079 372.357 219.647 374.132Z" fill="#3E00FA"/>
<path opacity="0.5" d="M186.129 230.65C184.805 230.071 183.288 230.216 181.622 231.031L136.612 253.073C134.027 254.359 132.019 255.789 130.502 257.401L98.0741 241.517C99.5481 239.887 101.599 238.475 104.141 237.189L149.194 215.147C150.988 214.259 152.548 214.205 153.936 214.911C154.257 215.038 183.096 229.165 186.129 230.65Z" fill="white"/>
<path d="M142.55 522.757C140.35 523.825 138.47 523.717 136.889 522.413C135.309 521.109 134.497 519.044 134.497 516.182V476.463L40.5242 522.467C38.3453 523.535 36.444 523.427 34.8632 522.123C33.2611 520.819 32.4706 518.754 32.4706 515.892V474.616C32.4706 467.86 33.7524 461.648 36.3586 455.979L125.567 265.499C127.362 261.768 129.007 259.087 130.481 257.439C131.976 255.809 134.005 254.342 136.612 253.074L181.665 231.014C183.844 229.946 185.745 230.054 187.347 231.358C188.928 232.662 189.74 234.745 189.74 237.589V387.119L215.396 374.567C217.575 373.499 219.476 373.607 221.078 374.911C222.659 376.215 223.471 378.298 223.471 381.142V422.418C223.471 425.28 222.68 428.123 221.078 430.985C219.476 433.847 217.596 435.803 215.396 436.871L189.74 449.423V489.141C189.74 492.003 188.949 494.847 187.347 497.708C185.745 500.57 183.865 502.526 181.665 503.595L142.55 522.757ZM135.992 413.417V341.767L92.4345 434.734L135.992 413.417Z" fill="#E100FF"/>
<path opacity="0.3" d="M142.55 522.757C140.35 523.825 138.47 523.717 136.889 522.413C135.309 521.109 134.497 519.044 134.497 516.182V476.463L40.5242 522.467C38.3453 523.535 36.444 523.427 34.8632 522.123C33.2611 520.819 32.4706 518.754 32.4706 515.892V474.616C32.4706 467.86 33.7524 461.648 36.3586 455.979L125.567 265.499C127.362 261.768 129.007 259.087 130.481 257.439C131.976 255.809 134.005 254.342 136.612 253.074L181.665 231.014C183.844 229.946 185.745 230.054 187.347 231.358C188.928 232.662 189.74 234.745 189.74 237.589V387.119L215.396 374.567C217.575 373.499 219.476 373.607 221.078 374.911C222.659 376.215 223.471 378.298 223.471 381.142V422.418C223.471 425.28 222.68 428.123 221.078 430.985C219.476 433.847 217.596 435.803 215.396 436.871L189.74 449.423V489.141C189.74 492.003 188.949 494.847 187.347 497.708C185.745 500.57 183.865 502.526 181.665 503.595L142.55 522.757ZM135.992 413.417V341.767L92.4345 434.734L135.992 413.417Z" fill="white"/>
<path d="M430.15 211.018C429.552 197.289 427.501 184.865 424.041 173.708C420.559 162.569 415.282 153.912 408.233 147.772C405.755 145.617 403.042 143.806 400.094 142.339C394.689 139.658 370.55 127.885 367.602 126.437C362.197 123.774 356.023 122.289 349.102 121.981C338.357 121.528 325.518 124.951 310.607 132.25C295.696 139.549 282.858 148.696 272.112 159.653C261.367 170.629 252.48 182.637 245.41 195.695C238.36 208.754 233.062 222.573 229.601 237.117C226.119 251.679 224.069 266.114 223.471 280.422C223.065 291.778 222.872 303.568 222.872 315.758C222.872 327.947 223.065 339.285 223.471 349.735C224.069 363.464 226.098 375.906 229.601 387.045C233.062 398.202 238.36 406.841 245.41 412.999C247.888 415.154 250.579 416.947 253.484 418.414C258.91 421.113 283.349 433.067 286.489 434.57C291.787 437.106 297.811 438.518 304.54 438.79C315.286 439.243 328.103 435.82 343.035 428.521C357.946 421.222 370.785 412.075 381.53 401.118C392.254 390.16 401.162 378.134 408.233 365.076C415.282 352.035 420.559 338.216 424.041 323.654C427.523 309.111 429.552 294.657 430.15 280.349C430.535 269.518 430.748 257.999 430.748 245.792C430.748 233.585 430.535 221.994 430.15 211.018ZM312.252 349.427C311.633 345.551 311.248 341.313 311.098 336.676C310.094 315.105 310.094 293.299 311.098 271.257C311.291 264.683 311.996 258.362 313.192 252.331C314.388 246.299 316.183 240.685 318.554 235.487C320.947 230.307 324.129 225.562 328.103 221.269C331.628 217.466 335.985 214.242 341.07 211.525C341.732 215.365 342.202 219.567 342.501 224.131C343.291 245.285 343.291 267.11 342.501 289.55C342.287 296.143 341.647 302.427 340.557 308.404C339.468 314.381 337.673 319.996 335.195 325.248C332.717 330.5 329.47 335.246 325.497 339.538C321.908 343.378 317.464 346.674 312.252 349.427Z" fill="#E100FF"/>
<path opacity="0.15" d="M285.613 434.136C280.23 431.528 258.526 420.933 253.463 418.434C250.558 416.985 247.866 415.156 245.388 413.018C238.317 406.86 233.041 398.221 229.58 387.082C226.098 375.944 224.069 363.483 223.471 349.772C223.065 339.304 222.872 328.002 222.872 315.813C222.872 303.588 223.065 291.797 223.471 280.459C224.069 266.133 226.098 251.716 229.58 237.154C232.015 226.885 235.369 217.032 239.642 207.524L272.027 223.444C267.797 232.916 264.486 242.805 262.051 253.038C258.526 267.6 256.497 282.017 255.898 296.343C255.493 307.681 255.3 319.472 255.3 331.697C255.3 343.886 255.493 355.206 255.898 365.656C256.497 379.367 258.526 391.828 262.051 402.966C265.49 414.105 270.788 422.781 277.837 428.902C280.187 430.949 282.836 432.706 285.613 434.136Z" fill="#3E00FA"/>
<path opacity="0.5" d="M398.855 141.76C393.749 139.46 387.96 138.174 381.53 137.866C370.785 137.431 357.967 140.854 343.035 148.135C328.146 155.452 315.328 164.599 304.562 175.556C293.816 186.532 284.908 198.522 277.838 211.58C276.748 213.537 275.765 215.547 274.761 217.575C273.843 219.513 272.967 221.433 272.091 223.407H272.048L239.663 207.487C240.432 205.767 241.223 204.028 242.056 202.344C243.145 200.116 244.213 197.906 245.41 195.697C252.48 182.62 261.389 170.648 272.091 159.636C282.836 148.697 295.696 139.55 310.586 132.233C325.475 124.916 338.335 121.529 349.081 121.964C355.981 122.272 362.176 123.721 367.58 126.401C370.379 127.814 391.698 138.21 398.855 141.76Z" fill="white"/>
<path opacity="0.3" d="M374.972 305.417C374.779 311.991 374.096 318.294 373.006 324.271C371.917 330.266 370.122 335.845 367.644 341.097C366.555 343.361 365.316 345.57 363.927 347.671L331.499 331.787C332.867 329.687 334.106 327.495 335.174 325.213C337.652 319.961 339.446 314.382 340.557 308.387C341.647 302.392 342.266 296.089 342.48 289.533C343.27 267.075 343.27 245.268 342.48 224.114C342.202 219.55 341.732 215.348 341.091 211.49C341.091 211.49 341.924 210.983 343.014 210.439C348.974 207.433 353.951 206.274 357.946 206.654C361.898 207.053 365.102 208.683 367.495 211.526C369.887 214.37 371.618 218.264 372.729 223.172C373.818 228.08 374.566 233.713 374.972 239.998C375.719 261.152 375.719 282.958 374.972 305.417Z" fill="#3E00FA"/>
<path opacity="0.4" d="M363.949 347.672C362.197 350.406 360.189 352.978 357.967 355.387C353.973 359.68 349.017 363.284 343.035 366.182C337.075 369.134 332.14 370.384 328.146 369.967C324.151 369.587 320.925 368.011 318.447 365.186C315.969 362.378 314.175 358.52 313.085 353.612C312.765 352.254 312.53 350.841 312.295 349.374C317.486 346.639 321.972 343.343 325.518 339.485C327.761 337.076 329.79 334.504 331.542 331.77L363.949 347.672Z" fill="#3E00FA"/>
<path d="M343.035 148.135C357.946 140.836 370.785 137.413 381.53 137.866C392.275 138.337 401.162 141.633 408.233 147.773C415.282 153.931 420.559 162.57 424.041 173.709C427.523 184.866 429.552 197.29 430.15 211.019C430.535 221.995 430.748 233.586 430.748 245.775C430.748 257.983 430.535 269.502 430.15 280.332C429.552 294.64 427.501 309.075 424.041 323.637C420.559 338.199 415.282 352.018 408.233 365.059C401.183 378.117 392.275 390.143 381.53 401.101C370.785 412.058 357.946 421.205 343.035 428.504C328.124 435.803 315.286 439.226 304.54 438.773C293.795 438.32 284.908 435.024 277.838 428.866C270.788 422.726 265.49 414.069 262.029 402.912C258.547 391.773 256.518 379.331 255.898 365.602C255.493 355.151 255.3 343.832 255.3 331.624C255.3 319.417 255.493 307.645 255.898 296.289C256.497 281.98 258.526 267.545 262.029 252.984C265.49 238.44 270.788 224.621 277.838 211.562C284.887 198.504 293.795 186.496 304.54 175.52C315.286 164.581 328.124 155.434 343.035 148.135ZM374.95 305.417C375.741 282.958 375.741 261.152 374.95 239.998C374.544 233.713 373.797 228.098 372.707 223.172C371.618 218.264 369.866 214.37 367.474 211.508C365.081 208.665 361.898 207.034 357.925 206.636C353.951 206.256 348.974 207.523 343.014 210.439C337.054 213.355 332.076 216.96 328.103 221.252C324.13 225.545 320.947 230.272 318.554 235.47C316.161 240.668 314.388 246.282 313.192 252.314C311.996 258.345 311.291 264.666 311.098 271.24C310.094 293.282 310.094 315.089 311.098 336.659C311.291 343.053 311.953 348.704 313.042 353.63C314.132 358.538 315.926 362.414 318.404 365.203C320.882 368.011 324.13 369.623 328.103 370.003C332.076 370.401 337.054 369.134 343.014 366.2C348.974 363.284 353.951 359.679 357.925 355.387C361.898 351.113 365.145 346.349 367.623 341.097C370.101 335.863 371.895 330.248 372.985 324.253C374.096 318.294 374.758 312.01 374.95 305.417Z" fill="#E100FF"/>
<path opacity="0.3" d="M343.035 148.135C357.946 140.836 370.785 137.413 381.53 137.866C392.275 138.337 401.162 141.633 408.233 147.773C415.282 153.931 420.559 162.57 424.041 173.709C427.523 184.866 429.552 197.29 430.15 211.019C430.535 221.995 430.748 233.586 430.748 245.775C430.748 257.983 430.535 269.502 430.15 280.332C429.552 294.64 427.501 309.075 424.041 323.637C420.559 338.199 415.282 352.018 408.233 365.059C401.183 378.117 392.275 390.143 381.53 401.101C370.785 412.058 357.946 421.205 343.035 428.504C328.124 435.803 315.286 439.226 304.54 438.773C293.795 438.32 284.908 435.024 277.838 428.866C270.788 422.726 265.49 414.069 262.029 402.912C258.547 391.773 256.518 379.331 255.898 365.602C255.493 355.151 255.3 343.832 255.3 331.624C255.3 319.417 255.493 307.645 255.898 296.289C256.497 281.98 258.526 267.545 262.029 252.984C265.49 238.44 270.788 224.621 277.838 211.562C284.887 198.504 293.795 186.496 304.54 175.52C315.286 164.581 328.124 155.434 343.035 148.135ZM374.95 305.417C375.741 282.958 375.741 261.152 374.95 239.998C374.544 233.713 373.797 228.098 372.707 223.172C371.618 218.264 369.866 214.37 367.474 211.508C365.081 208.665 361.898 207.034 357.925 206.636C353.951 206.256 348.974 207.523 343.014 210.439C337.054 213.355 332.076 216.96 328.103 221.252C324.13 225.545 320.947 230.272 318.554 235.47C316.161 240.668 314.388 246.282 313.192 252.314C311.996 258.345 311.291 264.666 311.098 271.24C310.094 293.282 310.094 315.089 311.098 336.659C311.291 343.053 311.953 348.704 313.042 353.63C314.132 358.538 315.926 362.414 318.404 365.203C320.882 368.011 324.13 369.623 328.103 370.003C332.076 370.401 337.054 369.134 343.014 366.2C348.974 363.284 353.951 359.679 357.925 355.387C361.898 351.113 365.145 346.349 367.623 341.097C370.101 335.863 371.895 330.248 372.985 324.253C374.096 318.294 374.758 312.01 374.95 305.417Z" fill="white"/>
<path d="M659.068 160.506C658.748 160.252 658.406 160.035 658.064 159.872C656.697 159.22 627.751 145.038 627.751 145.038V23.1832C627.751 20.3396 626.961 18.2568 625.359 16.9527C625.06 16.6992 624.739 16.5 624.397 16.337C623.03 15.6668 592.311 0.634156 592.012 0.471151C590.624 -0.235203 589.043 -0.144639 587.248 0.72472L542.195 22.7847C539.611 24.0525 537.581 25.5014 536.086 27.1496C534.59 28.7978 532.967 31.4783 531.172 35.2093L441.942 225.671C439.357 231.358 438.054 237.571 438.054 244.308V285.585C438.054 288.446 438.845 290.511 440.447 291.815C440.767 292.087 441.109 292.304 441.451 292.467C442.818 293.119 473.516 308.17 473.857 308.333C475.225 309.003 476.806 308.912 478.557 308.061L540.08 277.941V285.892C540.08 288.754 540.871 290.819 542.473 292.123C542.794 292.376 543.114 292.594 543.434 292.757C544.802 293.427 575.542 308.478 575.862 308.641C577.229 309.329 578.81 309.238 580.583 308.369L619.655 289.243C621.834 288.175 623.735 286.219 625.337 283.357C626.918 280.495 627.73 277.652 627.73 274.79V235.071L653.386 222.52C655.565 221.451 657.466 219.495 659.068 216.634C660.649 213.79 661.461 210.928 661.461 208.067V166.79C661.439 163.874 660.649 161.81 659.068 160.506Z" fill="#E100FF"/>
<path opacity="0.15" d="M568.3 42.9794L568.129 43.4503C566.719 45.1165 565.224 47.6522 563.579 51.0753L474.391 241.555C473.238 244.055 472.362 246.663 471.764 249.38L439.101 233.387C439.742 230.707 440.575 228.135 441.686 225.672L530.873 35.1914C532.668 31.4604 534.313 28.7617 535.829 27.1317C535.829 27.1317 535.829 27.0955 535.872 27.0955L568.3 42.9794Z" fill="#3E00FA"/>
<path opacity="0.3" d="M473.473 308.116C469.799 306.323 442.754 293.083 441.451 292.467C441.131 292.304 440.767 292.069 440.447 291.797C438.845 290.511 438.054 288.446 438.054 285.567V244.326C438.054 240.541 438.524 236.937 439.336 233.496L471.764 249.38C470.931 252.803 470.525 256.425 470.525 260.21V301.487C470.525 304.33 471.315 306.395 472.875 307.681C473.088 307.862 473.281 307.989 473.473 308.116Z" fill="#3E00FA"/>
<path opacity="0.3" d="M574.046 127.362V199.011L546.724 185.645L574.046 127.362Z" fill="#3E00FA"/>
<path opacity="0.4" d="M574.047 199.011L530.468 220.31L546.724 185.645L574.047 199.011Z" fill="#3E00FA"/>
<path opacity="0.3" d="M574.922 307.989C575.115 308.134 575.286 308.26 575.478 308.387C571.846 306.63 544.716 293.355 543.456 292.739C543.093 292.576 542.772 292.358 542.494 292.087C540.892 290.801 540.102 288.7 540.102 285.856V277.905L572.53 262.021V301.74C572.53 304.602 573.32 306.703 574.922 307.989Z" fill="#3E00FA"/>
<path opacity="0.15" d="M657.68 159.709C656.398 159.238 654.967 159.365 653.407 160.144L627.73 172.713V145.057C627.73 145.039 654.134 157.952 657.68 159.709Z" fill="#3E00FA"/>
<path opacity="0.5" d="M624.184 16.2276C622.859 15.648 621.343 15.7929 619.676 16.6079L574.666 38.6498C572.06 39.9357 570.073 41.3665 568.556 42.9785L536.129 27.0946C537.603 25.4645 539.632 24.0518 542.195 22.7659L587.248 0.724019C589.043 -0.163451 590.602 -0.217788 591.991 0.488566C592.29 0.615348 621.129 14.7424 624.184 16.2276Z" fill="white"/>
<path d="M580.605 308.333C578.404 309.401 576.525 309.293 574.944 307.989C573.363 306.685 572.551 304.62 572.551 301.758V262.039L478.579 308.043C476.4 309.112 474.498 309.003 472.918 307.699C471.315 306.395 470.525 304.33 470.525 301.469V260.192C470.525 253.436 471.807 247.224 474.413 241.555L563.622 51.0751C565.416 47.3441 567.061 44.6636 568.535 43.0154C570.03 41.3854 572.06 39.9183 574.645 38.6505L619.698 16.5905C621.877 15.5219 623.778 15.6306 625.38 16.9346C626.961 18.2387 627.773 20.3215 627.773 23.1651V172.695L653.429 160.143C655.608 159.075 657.509 159.183 659.111 160.488C660.692 161.792 661.482 163.874 661.482 166.718V207.994C661.482 210.856 660.692 213.7 659.111 216.561C657.509 219.423 655.629 221.379 653.429 222.447L627.773 234.999V274.718C627.773 277.579 626.982 280.423 625.38 283.284C623.778 286.146 621.898 288.102 619.698 289.171L580.605 308.333ZM574.025 199.011V127.361L530.467 220.328L574.025 199.011Z" fill="#E100FF"/>
<path opacity="0.3" d="M580.605 308.333C578.404 309.401 576.525 309.293 574.944 307.989C573.363 306.685 572.551 304.62 572.551 301.758V262.039L478.579 308.043C476.4 309.112 474.498 309.003 472.918 307.699C471.315 306.395 470.525 304.33 470.525 301.469V260.192C470.525 253.436 471.807 247.224 474.413 241.555L563.622 51.0751C565.416 47.3441 567.061 44.6636 568.535 43.0154C570.03 41.3854 572.06 39.9183 574.645 38.6505L619.698 16.5905C621.877 15.5219 623.778 15.6306 625.38 16.9346C626.961 18.2387 627.773 20.3215 627.773 23.1651V172.695L653.429 160.143C655.608 159.075 657.509 159.183 659.111 160.488C660.692 161.792 661.482 163.874 661.482 166.718V207.994C661.482 210.856 660.692 213.7 659.111 216.561C657.509 219.423 655.629 221.379 653.429 222.447L627.773 234.999V274.718C627.773 277.579 626.982 280.423 625.38 283.284C623.778 286.146 621.898 288.102 619.698 289.171L580.605 308.333ZM574.025 199.011V127.361L530.467 220.328L574.025 199.011Z" fill="white"/>
</svg>
