<svg width="900" height="900" viewBox="0 0 900 900" fill="none" xmlns="http://www.w3.org/2000/svg">
<g filter="url(#filter0_d_463_12)">
<circle cx="450" cy="450" r="400" fill="#1A1B29"/>
</g>
<g clip-path="url(#clip0_463_12)">
<path d="M420.821 603C431.413 603 440.038 594.266 440.038 583.538V316.462C440.038 311.289 444.183 307.091 449.291 307.091C454.398 307.091 458.543 311.289 458.543 316.462V583.538C458.543 594.266 467.168 603 477.76 603C488.352 603 496.977 594.266 496.977 583.538V387.312C496.977 382.139 501.122 377.941 506.23 377.941C511.337 377.941 515.482 382.139 515.482 387.312V537.492C515.482 548.219 524.107 556.954 534.699 556.954C545.291 556.954 553.916 548.219 553.916 537.492V433.358C553.916 428.185 558.061 423.988 563.168 423.988C568.276 423.988 572.421 428.185 572.421 433.358V502.046C572.421 512.773 581.045 521.507 591.638 521.507C602.23 521.507 610.855 512.773 610.855 502.046V412.116C610.855 406.943 614.999 402.745 620.107 402.745C625.215 402.745 629.36 406.943 629.36 412.116V502.046C629.36 512.773 637.984 521.507 648.577 521.507C659.169 521.507 667.794 512.773 667.794 502.046V494.032C667.794 488.859 671.938 484.662 677.046 484.662C682.154 484.662 686.299 488.859 686.299 494.032C686.299 504.759 694.923 513.494 705.516 513.494H767.018C769.781 513.494 772 511.247 772 508.448C772 505.65 769.781 503.403 767.018 503.403H705.725C700.617 503.403 696.472 499.205 696.472 494.032C696.472 483.305 687.848 474.571 677.255 474.571C666.663 474.571 658.039 483.305 658.039 494.032V502.046C658.039 507.219 653.894 511.416 648.786 511.416C643.678 511.416 639.533 507.219 639.533 502.046V412.116C639.533 401.389 630.909 392.654 620.317 392.654C609.724 392.654 601.1 401.389 601.1 412.116V502.046C601.1 507.219 596.955 511.416 591.847 511.416C586.739 511.416 582.595 507.219 582.595 502.046V433.358C582.595 422.631 573.97 413.896 563.378 413.896C552.785 413.896 544.161 422.631 544.161 433.358V537.492C544.161 542.665 540.016 546.863 534.908 546.863C529.801 546.863 525.656 542.665 525.656 537.492V387.312C525.656 376.585 517.031 367.85 506.439 367.85C495.847 367.85 487.222 376.585 487.222 387.312V583.538C487.222 588.711 483.077 592.909 477.969 592.909C472.862 592.909 468.717 588.711 468.717 583.538V316.462C468.717 305.734 460.092 297 449.5 297C438.908 297 430.283 305.734 430.283 316.462V583.538C430.283 588.711 426.138 592.909 421.031 592.909C415.923 592.909 411.778 588.711 411.778 583.538V387.312C411.778 376.585 403.153 367.85 392.561 367.85C381.969 367.85 373.344 376.585 373.344 387.312V537.492C373.344 542.665 369.199 546.863 364.092 546.863C358.984 546.863 354.839 542.665 354.839 537.492V433.358C354.839 422.631 346.215 413.896 335.622 413.896C325.03 413.896 316.405 422.631 316.405 433.358V502.046C316.405 507.219 312.261 511.416 307.153 511.416C302.045 511.416 297.9 507.219 297.9 502.046V412.116C297.9 401.389 289.276 392.654 278.683 392.654C268.091 392.654 259.467 401.389 259.467 412.116V502.046C259.467 507.219 255.322 511.416 250.214 511.416C245.106 511.416 240.961 507.219 240.961 502.046V494.032C240.961 483.305 232.337 474.571 221.745 474.571C211.152 474.571 202.528 483.305 202.528 494.032C202.528 499.205 198.383 503.403 193.275 503.403H131.982C129.219 503.403 127 505.65 127 508.448C127 511.247 129.219 513.494 131.982 513.494H193.275C203.867 513.494 212.492 504.759 212.492 494.032C212.492 488.859 216.637 484.662 221.745 484.662C226.852 484.662 230.997 488.859 230.997 494.032V502.046C230.997 512.773 239.622 521.507 250.214 521.507C260.806 521.507 269.431 512.773 269.431 502.046V412.116C269.431 406.943 273.576 402.745 278.683 402.745C283.791 402.745 287.936 406.943 287.936 412.116V502.046C287.936 512.773 296.561 521.507 307.153 521.507C317.745 521.507 326.37 512.773 326.37 502.046V433.358C326.37 428.185 330.514 423.988 335.622 423.988C340.73 423.988 344.875 428.185 344.875 433.358V537.492C344.875 548.219 353.499 556.954 364.092 556.954C374.684 556.954 383.309 548.219 383.309 537.492V387.312C383.309 382.139 387.453 377.941 392.561 377.941C397.669 377.941 401.814 382.139 401.814 387.312V583.538C401.814 594.266 410.438 603 421.031 603H420.821Z" fill="url(#paint0_linear_463_12)" fill-opacity="0.6"/>
<path d="M301.045 499.209H262V442.492H301.045V453.843H273.4V465.194H292.108V476.546H273.4V487.858H301.045V499.209Z" fill="white"/>
<path d="M343.864 465.274L335.92 473.223C335.522 472.116 334.98 471.127 334.291 470.257C333.603 469.361 332.821 468.609 331.948 468.003C331.1 467.396 330.173 466.935 329.167 466.618C328.161 466.302 327.128 466.144 326.069 466.144C324.586 466.144 323.183 466.447 321.859 467.053C320.561 467.66 319.422 468.517 318.443 469.624C317.489 470.705 316.735 471.997 316.179 473.5C315.622 475.003 315.344 476.664 315.344 478.484C315.344 479.96 315.622 481.345 316.179 482.637C316.735 483.929 317.489 485.063 318.443 486.038C319.422 487.014 320.561 487.779 321.859 488.332C323.183 488.886 324.586 489.163 326.069 489.163C327.128 489.163 328.148 489.018 329.127 488.728C330.107 488.438 331.021 488.029 331.868 487.502C332.742 486.948 333.51 486.289 334.172 485.524C334.86 484.733 335.416 483.863 335.84 482.914L343.784 490.864C342.778 492.287 341.613 493.566 340.289 494.7C338.991 495.834 337.575 496.796 336.039 497.587C334.529 498.378 332.927 498.972 331.233 499.367C329.564 499.789 327.843 500 326.069 500C323.077 500 320.257 499.446 317.609 498.339C314.987 497.205 312.683 495.662 310.697 493.711C308.738 491.76 307.189 489.479 306.05 486.869C304.911 484.258 304.342 481.463 304.342 478.484C304.342 475.241 304.911 472.208 306.05 469.387C307.189 466.566 308.738 464.113 310.697 462.03C312.683 459.921 314.987 458.26 317.609 457.047C320.257 455.834 323.077 455.227 326.069 455.227C327.843 455.227 329.578 455.452 331.272 455.9C332.994 456.348 334.622 457.007 336.158 457.877C337.72 458.721 339.15 459.763 340.448 461.002C341.772 462.241 342.91 463.665 343.864 465.274Z" fill="white"/>
<path d="M360.03 499.209H349.186V440H360.03V458.708C361.327 457.732 362.665 457.047 364.042 456.651C365.419 456.229 366.822 456.018 368.252 456.018C370.874 456.018 373.336 456.519 375.64 457.521C377.944 458.497 379.943 459.855 381.638 461.595C383.359 463.309 384.709 465.326 385.689 467.647C386.695 469.941 387.199 472.393 387.199 475.003V499.209H376.275V475.003H376.355C376.355 473.896 376.143 472.854 375.719 471.879C375.296 470.877 374.713 470.007 373.972 469.268C373.23 468.53 372.37 467.95 371.39 467.528C370.41 467.106 369.364 466.895 368.252 466.895C367.113 466.895 366.041 467.106 365.035 467.528C364.028 467.95 363.155 468.53 362.413 469.268C361.672 470.007 361.089 470.877 360.665 471.879C360.242 472.854 360.03 473.896 360.03 475.003V499.209Z" fill="white"/>
<path d="M436.055 477.653C436.055 480.817 435.485 483.771 434.347 486.513C433.208 489.229 431.659 491.589 429.699 493.593C427.74 495.57 425.436 497.139 422.788 498.299C420.167 499.433 417.346 500 414.328 500C411.335 500 408.515 499.433 405.867 498.299C403.246 497.139 400.942 495.57 398.956 493.593C396.996 491.589 395.447 489.229 394.309 486.513C393.17 483.771 392.601 480.817 392.601 477.653C392.601 474.436 393.17 471.457 394.309 468.715C395.447 465.972 396.996 463.612 398.956 461.635C400.942 459.631 403.246 458.062 405.867 456.928C408.515 455.794 411.335 455.227 414.328 455.227C417.346 455.227 420.167 455.768 422.788 456.849C425.436 457.904 427.74 459.42 429.699 461.397C431.659 463.349 433.208 465.709 434.347 468.477C435.485 471.22 436.055 474.278 436.055 477.653ZM425.132 477.653C425.132 475.913 424.84 474.344 424.258 472.947C423.702 471.523 422.934 470.31 421.954 469.308C420.974 468.279 419.822 467.502 418.498 466.974C417.201 466.421 415.811 466.144 414.328 466.144C412.845 466.144 411.441 466.421 410.117 466.974C408.82 467.502 407.681 468.279 406.701 469.308C405.748 470.31 404.993 471.523 404.437 472.947C403.881 474.344 403.603 475.913 403.603 477.653C403.603 479.288 403.881 480.804 404.437 482.202C404.993 483.599 405.748 484.812 406.701 485.84C407.681 486.869 408.82 487.686 410.117 488.293C411.441 488.873 412.845 489.163 414.328 489.163C415.811 489.163 417.201 488.886 418.498 488.332C419.822 487.779 420.974 487.001 421.954 485.999C422.934 484.997 423.702 483.784 424.258 482.36C424.84 480.936 425.132 479.367 425.132 477.653Z" fill="white"/>
<path d="M499.726 482.993C499.726 485.339 499.276 487.554 498.376 489.637C497.502 491.694 496.284 493.5 494.722 495.056C493.186 496.585 491.372 497.798 489.28 498.695C487.214 499.565 485.003 500 482.647 500C480.528 500 478.489 499.631 476.53 498.893C474.597 498.154 472.849 497.073 471.287 495.649C469.724 497.073 467.963 498.154 466.004 498.893C464.044 499.631 462.005 500 459.887 500C457.53 500 455.306 499.565 453.214 498.695C451.148 497.798 449.334 496.585 447.772 495.056C446.236 493.5 445.018 491.694 444.118 489.637C443.244 487.554 442.807 485.339 442.807 482.993V442.492H454.207V482.993C454.207 483.784 454.353 484.535 454.644 485.247C454.935 485.933 455.332 486.539 455.835 487.067C456.365 487.568 456.974 487.963 457.663 488.253C458.351 488.543 459.092 488.688 459.887 488.688C460.681 488.688 461.423 488.543 462.111 488.253C462.8 487.963 463.396 487.568 463.899 487.067C464.428 486.539 464.839 485.933 465.13 485.247C465.421 484.535 465.567 483.784 465.567 482.993V442.492H476.967V482.993C476.967 483.784 477.112 484.535 477.404 485.247C477.695 485.933 478.092 486.539 478.595 487.067C479.125 487.568 479.734 487.963 480.422 488.253C481.111 488.543 481.852 488.688 482.647 488.688C483.441 488.688 484.182 488.543 484.871 488.253C485.559 487.963 486.155 487.568 486.658 487.067C487.188 486.539 487.598 485.933 487.89 485.247C488.207 484.535 488.366 483.784 488.366 482.993V442.492H499.726V482.993Z" fill="white"/>
<path d="M549.417 499.209H546.795L542.585 493.395C541.552 494.318 540.453 495.188 539.288 496.005C538.149 496.796 536.944 497.495 535.673 498.102C534.402 498.682 533.092 499.143 531.741 499.486C530.417 499.829 529.067 500 527.69 500C524.697 500 521.877 499.499 519.229 498.497C516.608 497.495 514.304 496.045 512.318 494.146C510.358 492.221 508.809 489.875 507.67 487.106C506.532 484.338 505.963 481.187 505.963 477.653C505.963 474.357 506.532 471.338 507.67 468.596C508.809 465.827 510.358 463.454 512.318 461.477C514.304 459.499 516.608 457.97 519.229 456.889C521.877 455.781 524.697 455.227 527.69 455.227C529.067 455.227 530.43 455.399 531.781 455.742C533.131 456.084 534.442 456.559 535.713 457.165C536.984 457.772 538.189 458.484 539.328 459.301C540.493 460.119 541.578 461.002 542.585 461.951L546.795 456.928H549.417V499.209ZM538.493 477.653C538.493 476.177 538.202 474.753 537.62 473.382C537.064 471.984 536.296 470.758 535.316 469.703C534.336 468.622 533.184 467.765 531.86 467.132C530.563 466.473 529.172 466.144 527.69 466.144C526.207 466.144 524.803 466.394 523.479 466.895C522.182 467.396 521.043 468.134 520.063 469.11C519.11 470.086 518.355 471.299 517.799 472.749C517.243 474.173 516.965 475.808 516.965 477.653C516.965 479.499 517.243 481.147 517.799 482.597C518.355 484.021 519.11 485.221 520.063 486.196C521.043 487.172 522.182 487.91 523.479 488.411C524.803 488.912 526.207 489.163 527.69 489.163C529.172 489.163 530.563 488.846 531.86 488.214C533.184 487.554 534.336 486.697 535.316 485.643C536.296 484.562 537.064 483.336 537.62 481.964C538.202 480.567 538.493 479.13 538.493 477.653Z" fill="white"/>
<path d="M569.793 499.209L553.587 456.849H565.94L575.235 483.27L584.49 456.849H596.882L580.677 499.209H569.793Z" fill="white"/>
<path d="M616.663 488.846C617.087 488.978 617.511 489.071 617.934 489.123C618.358 489.15 618.782 489.163 619.205 489.163C620.264 489.163 621.284 489.018 622.264 488.728C623.244 488.438 624.157 488.029 625.004 487.502C625.878 486.948 626.646 486.289 627.308 485.524C627.997 484.733 628.553 483.863 628.976 482.914L636.921 490.864C635.914 492.287 634.749 493.566 633.425 494.7C632.128 495.834 630.711 496.796 629.175 497.587C627.666 498.378 626.064 498.972 624.369 499.367C622.701 499.789 620.979 500 619.205 500C616.213 500 613.393 499.446 610.745 498.339C608.123 497.231 605.82 495.689 603.833 493.711C601.874 491.734 600.325 489.387 599.186 486.671C598.048 483.929 597.478 480.923 597.478 477.653C597.478 474.305 598.048 471.246 599.186 468.477C600.325 465.709 601.874 463.349 603.833 461.397C605.82 459.446 608.123 457.93 610.745 456.849C613.393 455.768 616.213 455.227 619.205 455.227C620.979 455.227 622.714 455.438 624.409 455.86C626.103 456.282 627.705 456.889 629.215 457.68C630.751 458.471 632.181 459.446 633.505 460.606C634.829 461.74 635.994 463.019 637 464.443L616.663 488.846ZM622.224 466.579C621.721 466.394 621.218 466.276 620.715 466.223C620.238 466.17 619.735 466.144 619.205 466.144C617.722 466.144 616.319 466.421 614.995 466.974C613.697 467.502 612.559 468.266 611.579 469.268C610.626 470.27 609.871 471.483 609.315 472.907C608.759 474.305 608.481 475.887 608.481 477.653C608.481 478.049 608.494 478.497 608.52 478.998C608.573 479.499 608.64 480.013 608.719 480.541C608.825 481.042 608.944 481.529 609.077 482.004C609.209 482.479 609.381 482.9 609.593 483.27L622.224 466.579Z" fill="white"/>
</g>
<defs>
<filter id="filter0_d_463_12" x="28" y="30" width="848" height="848" filterUnits="userSpaceOnUse" color-interpolation-filters="sRGB">
<feFlood flood-opacity="0" result="BackgroundImageFix"/>
<feColorMatrix in="SourceAlpha" type="matrix" values="0 0 0 0 0 0 0 0 0 0 0 0 0 0 0 0 0 0 127 0" result="hardAlpha"/>
<feMorphology radius="7" operator="dilate" in="SourceAlpha" result="effect1_dropShadow_463_12"/>
<feOffset dx="2" dy="4"/>
<feGaussianBlur stdDeviation="8.5"/>
<feComposite in2="hardAlpha" operator="out"/>
<feColorMatrix type="matrix" values="0 0 0 0 0 0 0 0 0 0 0 0 0 0 0 0 0 0 0.25 0"/>
<feBlend mode="normal" in2="BackgroundImageFix" result="effect1_dropShadow_463_12"/>
<feBlend mode="normal" in="SourceGraphic" in2="effect1_dropShadow_463_12" result="shape"/>
</filter>
<linearGradient id="paint0_linear_463_12" x1="771.958" y1="449.979" x2="51.9311" y2="449.999" gradientUnits="userSpaceOnUse">
<stop stop-color="#FF7433"/>
<stop offset="0.434732" stop-color="#7750E7"/>
<stop offset="0.793329" stop-color="#FE226A"/>
</linearGradient>
<clipPath id="clip0_463_12">
<rect width="645" height="306" fill="white" transform="translate(127 297)"/>
</clipPath>
</defs>
</svg>
